<?xml version="1.0" encoding="utf-8"?>
<svg version="1.1" id="Layer_1" xmlns="http://www.w3.org/2000/svg" xmlns:xlink="http://www.w3.org/1999/xlink" x="0px" y="0px"
	 viewBox="0 0 1376.7 1080" style="enable-background:new 0 0 1376.7 1080;" xml:space="preserve">
<style type="text/css">
	.st0{fill:#37A1D5;}
	.st1{fill:#37A0D5;}
	.st2{fill:#582E1C;}
	.st3{fill:#3AAFE3;}
	.st4{fill:#3AACE0;}
	.st5{fill:#3AABDF;}
	.st6{fill:#39A8DC;}
	.st7{fill:#3CB3E7;}
	.st8{fill:#38A5DA;}
	.st9{fill:#39A9DD;}
	.st10{fill:#37A1D6;}
	.st11{fill:#38A3D8;}
	.st12{fill:#572D1B;}
	.st13{fill:#3BB0E4;}
	.st14{fill:#562C1C;}
	.st15{fill:#38A4D9;}
	.st16{fill:#582F1C;}
	.st17{fill:#3AADE1;}
	.st18{fill:#582F1F;}
	.st19{fill:#3BADE1;}
	.st20{fill:#3BB1E4;}
	.st21{fill:#5A311B;}
	.st22{fill:#339ED4;}
	.st23{fill:#2C9BD3;}
	.st24{fill:#33A2D8;}
	.st25{fill:#2FA1D7;}
	.st26{fill:#3AA8DC;}
	.st27{fill:#2EA5DD;}
	.st28{fill:#572C1B;}
	.st29{fill:#592C1A;}
	.st30{fill:#33AFE4;}
	.st31{fill:#855B10;}
	.st32{fill:#5A311D;}
	.st33{fill:#5B3224;}
	.st34{fill:#59301E;}
	.st35{fill:#2EA3DA;}
	.st36{fill:#5D3524;}
	.st37{fill:#5B3320;}
	.st38{fill:#4A1F12;}
	.st39{fill:#5A3323;}
	.st40{fill:#5A230D;}
	.st41{fill:#259ED7;}
	.st42{fill:#5C3421;}
	.st43{fill:#219AD5;}
	.st44{fill:#5E3620;}
	.st45{fill:#5D3421;}
	.st46{fill:#754C15;}
	.st47{fill:#2B9CD4;}
	.st48{fill:#491B0A;}
	.st49{fill:#431608;}
	.st50{fill:#34AADF;}
	.st51{fill:#47180A;}
	.st52{fill:#481F19;}
	.st53{fill:#471809;}
	.st54{fill:#573021;}
	.st55{fill:#441404;}
	.st56{fill:#2698D2;}
	.st57{fill:#30A4DC;}
	.st58{fill:#623C26;}
	.st59{fill:#4C1E12;}
	.st60{fill:#441507;}
	.st61{fill:#34A0D6;}
	.st62{fill:#28A3DC;}
	.st63{fill:#279FD8;}
	.st64{fill:#734F3F;}
	.st65{fill:#2CA0D8;}
	.st66{fill:#2096D1;}
	.st67{fill:#451608;}
	.st68{fill:#2298D2;}
	.st69{fill:#26A3DC;}
	.st70{fill:#30ABE1;}
	.st71{fill:#299BD4;}
	.st72{fill:#4D210F;}
	.st73{fill:#27A5DF;}
	.st74{fill:#2D9DD4;}
	.st75{fill:#28A9E2;}
	.st76{fill:#2B9BD3;}
	.st77{fill:#2FAAE1;}
	.st78{fill:#451609;}
	.st79{fill:#1E9EDA;}
	.st80{fill:#5E3727;}
	.st81{fill:#5D3426;}
	.st82{fill:#2296D1;}
	.st83{fill:#2D9CD4;}
	.st84{fill:#2397D1;}
	.st85{fill:#3BB2E6;}
	.st86{fill:#3CB6E9;}
	.st87{fill:#CA843B;}
	.st88{fill:#3DB9EC;}
	.st89{fill:#572F1D;}
	.st90{fill:#3BC4F3;}
	.st91{fill:#38B4EC;}
	.st92{fill:#59210A;}
	.st93{fill:#5B1F05;}
	.st94{fill:#502819;}
	.st95{fill:#2EABE2;}
	.st96{fill:#38AEE3;}
	.st97{fill:#289BD4;}
	.st98{fill:#309FD6;}
	.st99{fill:#2D9CD3;}
	.st100{fill:#2E9CD3;}
	.st101{fill:#3EBEF1;}
	.st102{fill:#CE873B;}
	.st103{fill:#3BCEFC;}
	.st104{fill:#B07134;}
	.st105{fill:#D1893D;}
	.st106{fill:#48859B;}
	.st107{fill:#28A0D9;}
	.st108{fill:#2FA0D7;}
	.st109{fill:#38A6DA;}
	.st110{fill:#D38B3E;}
	.st111{fill:#59301D;}
	.st112{fill:#5D1A00;}
	.st113{fill:#3EBCEF;}
	.st114{fill:#38BEF3;}
	.st115{fill:#AC6E32;}
	.st116{fill:#492317;}
	.st117{fill:#35B6EF;}
	.st118{fill:#D0883C;}
	.st119{fill:#35A5DD;}
	.st120{fill:#3DBBEE;}
	.st121{fill:#B6890E;}
	.st122{fill:#D9A80C;}
	.st123{fill:#C1930D;}
	.st124{fill:#3CC6F4;}
	.st125{fill:#5D331D;}
	.st126{fill:#B2840F;}
	.st127{fill:#591E04;}
	.st128{fill:#4C585E;}
	.st129{fill:#C7980E;}
	.st130{fill:#BD8F11;}
	.st131{fill:#B88C12;}
	.st132{fill:#CC9E12;}
	.st133{fill:#F4C20D;}
	.st134{fill:#FDD60A;}
	.st135{fill:#BB911A;}
	.st136{fill:#BA8C0E;}
	.st137{fill:#C3950D;}
	.st138{fill:#CF9F0C;}
	.st139{fill:#CB9C0D;}
	.st140{fill:#421B1E;}
	.st141{fill:#DDF6FB;}
	.st142{fill:#5A210A;}
	.st143{fill:#D5F2FA;}
	.st144{fill:#36B9F4;}
	.st145{fill:#4B636F;}
	.st146{fill:#D7F3FB;}
	.st147{fill:#34AAE4;}
	.st148{fill:#3AC3F6;}
	.st149{fill:#65402B;}
	.st150{fill:#D68D3E;}
	.st151{fill:#CE883C;}
	.st152{fill:#D38B3D;}
	.st153{fill:#CEF1FB;}
	.st154{fill:#5A2008;}
	.st155{fill:#5D3823;}
	.st156{fill:#613A20;}
	.st157{fill:#D6F5FC;}
	.st158{fill:#594030;}
	.st159{fill:#DFF8FD;}
	.st160{fill:#592611;}
	.st161{fill:#5D311A;}
	.st162{fill:#5B3825;}
	.st163{fill:#5F3319;}
	.st164{fill:#541809;}
	.st165{fill:#5D3924;}
	.st166{fill:#5B3B28;}
	.st167{fill:#4A1914;}
	.st168{fill:#521F11;}
	.st169{fill:#5B1301;}
	.st170{fill:#4E646D;}
	.st171{fill:#3BCEFD;}
	.st172{fill:#5B2510;}
	.st173{fill:#3DB8EB;}
	.st174{fill:#5B3322;}
	.st175{fill:#D5F3FB;}
	.st176{fill:#5B311B;}
	.st177{fill:#B6880E;}
	.st178{fill:#532812;}
	.st179{fill:#61381E;}
	.st180{fill:#481E13;}
	.st181{fill:#451909;}
	.st182{fill:#4B2012;}
	.st183{fill:#51250C;}
	.st184{fill:#DCAC0C;}
	.st185{fill:#411107;}
	.st186{fill:#CA9B0D;}
	.st187{fill:#C99A0E;}
	.st188{fill:#DFAE0C;}
	.st189{fill:#D5A60E;}
	.st190{fill:#F5C40C;}
	.st191{fill:#582E1B;}
	.st192{fill:#C8990D;}
	.st193{fill:#431509;}
	.st194{fill:#5C3522;}
	.st195{fill:#633C29;}
	.st196{fill:#60361A;}
	.st197{fill:#C07D40;}
	.st198{fill:#58301F;}
	.st199{fill:#C78342;}
	.st200{fill:#4B2416;}
	.st201{fill:#835632;}
	.st202{fill:#59210D;}
	.st203{fill:#E2B10C;}
	.st204{fill:#E7B60C;}
	.st205{fill:#EBBA0C;}
	.st206{fill:#EAB90C;}
	.st207{fill:#F5C30B;}
	.st208{fill:#542919;}
	.st209{fill:#5B2F1C;}
	.st210{fill:#5A1C05;}
	.st211{fill:#572E20;}
	.st212{fill:#542A14;}
	.st213{fill:#633E32;}
	.st214{fill:#633A1D;}
	.st215{fill:#41140B;}
	.st216{fill:#583021;}
	.st217{fill:#663E26;}
	.st218{fill:#42160D;}
	.st219{fill:#582B1B;}
	.st220{fill:#FEDC09;}
	.st221{fill:#451B13;}
	.st222{fill:#572E1E;}
	.st223{fill:#582F1D;}
	.st224{fill:#5D3721;}
	.st225{fill:#5A1E08;}
	.st226{fill:#5A3121;}
	.st227{fill:#4B1D0E;}
	.st228{fill:#593322;}
	.st229{fill:#3FBFED;}
	.st230{fill:#42AECD;}
</style>
<image style="overflow:visible;opacity:0.24;" width="269" height="211" xlink:href="60477AF9.jpg"  transform="matrix(5.1177 0 0 5.1177 0 -1354.6666)">
</image>
<path class="st0" d="M1073.4,768.3c12.7-0.3,23.5,4.2,32,13.4c8.6,9.3,8.9,17.8-3.5,24.3c-3.3-2.4-6.4,0.7-9.6,0.2
	c-8-0.4-9.9-7-12.3-12.7c-2.7-6.4-7.2-10.3-14-11.3c-5.6-0.8-10.9,0.9-13.8,5.8c-3.1,5.1-1.1,10.3,3,14.3c6.1,6,13.8,9.5,21.5,13.1
	c9,4.2,18,8.3,25.8,14.8c11.6,9.6,15.4,20.9,9.7,34.6c-5.9,14.2-17.1,20.8-32.5,20.3c-8.4-1.1-16.9-1.2-25.3,0.1
	c-13.6,0.8-23.6-5.7-33.3-14.7c-5.7-5.3-9.1-10.2-7.1-17.5c1.5-5.5,6.2-8.3,11.8-9c8-1.1,13,3,16.1,9.9c4.1,9,9.9,16.1,20.5,17.5
	c11.3,1.5,18.9-1.3,17.5-14.8c1-5.2-1.7-7-6.4-6.8c-13.9-6.3-28-12.2-40.2-21.7c-12.6-9.8-17.3-22.7-12.7-37.9
	c4.4-14.6,15.3-21.9,30.7-22.1C1058.8,770.6,1066.1,770.5,1073.4,768.3z"/>
<path class="st1" d="M1131,790.4c0.2-7,0.2-14,5.8-19.4c31.7,0.4,63.5,0.3,95.2,0c6.5,7.4,5.9,16.6,6.2,25.5
	c-2.3,3.2,0.8,6.3,0.2,9.5c-5.8,6.8-10.2,2.3-14-2.1c-3.1-3.5-5.1-8-8-11.7c-3.2-4.2-7.3-9.1-12.9-7c-5.5,2.1-2.8,8.3-2.8,12.7
	c-0.2,18.5,0,36.9,0,55.4c0,5.9,0.2,11.7,3.8,16.7c8.3,11.5,4.6,15.9-8.7,15.5c-9-0.3-17.9,0-26.9-0.1c-6.2-0.1-12.2-3-7.8-9.3
	c12.4-17.5,5.7-36.8,7.3-55.3c0.7-7.9,0.4-15.8,0-23.7c-0.3-4.2,2.8-11-3.7-12c-5.4-0.8-10.7,1.8-13.7,8.2c-3.2,7-6.1,15.1-15.8,16
	c-2.3,0.2-4.1-0.7-5-2.9C1129.6,801,1133.7,795.9,1131,790.4z"/>
<path class="st2" d="M911.1,356.2c24.4,31.3,49.9,62.1,51.5,104.7c-0.7,10.5-2.3,21-0.3,31.5c-1.5,26.6-13.5,48.5-28.8,69.8
	c-14.4,20.2-33.7,34.4-52.4,49.5c-4.4,3.6-8.9,7.4-15.1,7.9c-5.7,5.6-11.5,2.1-17.4,0.4c-7.1-4.8-11.1-10.8-7.3-19.6
	c3-2.3,5.9-1,8.8,0.1c4.8,2.8,9.8,4,14.9,0.6c44-28.9,77.4-65,82-122.8c-6.3,6.4-12.8,8.2-19.8,8.6c-4.7,0.2-9.4,0-14-1.2
	c-3.8-1.2-7.6-2.3-10.6-5.1c-1.2-7.8,4.7-6.4,9-7c1.4,0.1,2.9,0.4,4.2,0.8c2.7-0.5,5.6,5.1,8.2-0.2c0.9-1.9,2.5-3.1,4.2-4.2
	c15.2-9.3,16.9-14.2,12.9-37.4c-2.4-8.3-4.9-16.6-8.9-24.2c-4-7.4-8.4-14.6-12.9-21.8c-6.5-9.2-13.5-17.9-21.6-25.7
	c-1.9-2.3-3.3-4.9-3.2-8c0.5-2.4,1.8-3.9,4.1-4.6C904.4,348.3,906.8,353.7,911.1,356.2z"/>
<path class="st3" d="M370.5,838.7c-3.7,25.6-25.8,44.7-54.7,46.3c-14.6,0.8-29.3,0.4-43.9,0.3c-16.7-0.1-17.5-1.8-9.1-16.9
	c1-1.8,2-3.7,3.1-5.5c6.3-8.1-0.3-19,6.1-27.1c11.1-5.6,15.7-14.6,15.1-27c-0.2-4.4,0-11.6,5.4-11.6c6.8,0,5.7,7.5,6,12.4
	c0.9,14.2-0.9,28.5,1.2,42.6c8,16.1,11.2,16.2,30,0.5c8.7-0.9,2.6-7.5,4.2-11.1c-0.1-1.4,0.1-2.7,0.5-4c0.6-1.2,1.3-2.4,2-3.5
	c2.3-3.4,2.4-7.9,5.7-10.8c9.8-3.8,18.4-9.9,27.9-14.2c0.2,1.8,0.4,3.5,0.7,5.3C372.4,822.7,372.4,830.7,370.5,838.7z"/>
<path class="st4" d="M537.5,845.3c-2.8-3.1-2.9-6.9-2.5-10.8c2.6-7.3,2.2-14.7,0.2-22c4-25.2,20.7-40.8,47.4-44.1
	c6.3,1.9,12.5,2.2,18.8-0.2c9-0.5,17.9,1.6,25.7-6.9c6.2-6.7,10,0.4,11.2,6.2c1.9,9.6,2.9,19.3,4.3,29c-2.2,3.3,0.7,6.4,0.4,9.6
	c-7.3,6.9-10.3-0.9-12.6-4.8c-6.3-10.5-15-17.1-26.6-20.3c0.3-0.4,0.7-1.2,0.8-1.2c1.9,0.9,3.5,0.8,1.4,0.2c-7.3-2-14.1-1.7-19.8,4
	c-14.8,11.2-17.6,26.9-16.8,44.1C563,841.9,547.7,838.7,537.5,845.3z"/>
<path class="st0" d="M940.2,790.2c-0.2,3.6,0,7.3-0.6,10.9c-2.4,13.2,2.4,18.2,15.5,13.9c11,1.8,6.9,10.4,6.9,16.5
	c0,4.9-2.3,9.2-8.8,6.2c-4.8-0.9-10.6-7.8-13.4,2.1c-3.8,13.2,1.2,27.8,10.1,29.4c11.7,2.1,19.9-2.3,26.2-12.8
	c3.6-6,6.4-17.6,18.2-9.2c0.8,3.2-2.6,6.4,0.1,9.5c-0.2,9.1,0.1,18.3-6.1,25.9c-23.5-1.4-47.1-0.2-70.7-0.7
	c-7-0.1-14.1,0.2-15.2-9.5c1.1-2.1,2.2-4.3,3.4-6.4c1.4-2,2.1-4.2,2.7-6.6c1.3-11.2-1.3-22.6,1.6-33.7c5-6.7,14.3-5.9,20-11.3
	c6.1-6.9,0.6-16.7,5.9-23.7C937.3,789.7,938.7,789.4,940.2,790.2z"/>
<path class="st5" d="M509.7,809c12.4,36.9-10.2,73.2-47.6,76.3c-7.4-1.6-14.8-1.1-22.2-0.3c-16.4-0.9-29.1-8.3-38-22
	c8.4-7.9,18.4-11.1,29.9-9.7c7.8,5.1,12.4,17.6,24.8,12.6c11.3-4.5,13-15.5,15.1-25.9c1.5-7.3,2.2-14.5,2.1-21.9
	c0.6-4.5-0.2-11,5.6-11.4c5.1-0.3,4.7,6,5.5,9.9c2.2,11.3,8.1,8.9,14.5,3.9C503.6,817.3,503.9,810.7,509.7,809z"/>
<path class="st2" d="M601.3,616.6c-14.3-11.3-30.9-19.7-42.1-34.8c0.5-4.2-1.8-5.8-5.6-6.1c-36.5-47-54.1-99.3-43.7-159.2
	c7-3.7,7.7,1.9,9.4,6.3c1.7,4.5-1.7,9.4,1.2,13.7c1.3,0.6,2.3,1.4,3.3,2.4c0.8,1.3,1.3,2.6,1.7,4c0.6,3,0.8,5.9,0.8,8.9
	c0,4.5-0.1,8.9-1,13.3c-1.5,6.6,1.2,12.5,3.1,18.5c8.2,27.9,17.1,55.4,36.1,78.3c4,5,8.5,9.3,13,13.8c4.2,4.3,8.2,8.7,12.8,12.6
	c3.3,4.2,8.7,0.7,12.5,3.3C607.7,600.4,612.3,609,601.3,616.6z"/>
<path class="st6" d="M537.5,845.3c7.8-11,22.7-8.7,32-17c7.8,28,16.8,36.8,38.9,37.9c12.2,0.6,21-6,28.6-14.6c2.6-2.9,5.3-6,9.2-3.4
	c4.1,2.8,1.8,6.9,0.1,9.9c-7.9,14-17.3,26.2-35.4,27c-7.4-1-14.8-1.3-22.1,0.1C563.2,883.4,544.4,868.7,537.5,845.3z"/>
<path class="st7" d="M297,856.8c-5.9-12.5-1.6-25.8-2.7-38.7c-0.5-6-0.1-12.1-1.3-18.3c-4.9,14.1,6.4,36.6-21,37.9
	c-5.7-7.5-2.3-16.3-3.1-24.4c-0.8-7.7,1.7-15.9-3.2-23.1c-11.6-20.8-10.8-22.4,13.3-21.9c22.3,0.5,45.5-4.2,65.9,9.9
	c3.5,4.7,7.7,9.2,1.3,14.8c-7.8,6.8-15.4,4.4-23.1-0.2c-17.2-4.6-20.7-2.2-21.3,15.2c-0.4,11,0.1,21.9-0.2,32.9
	C301.4,846.5,302.2,852.5,297,856.8z"/>
<path class="st8" d="M706.5,814.6c6.9,6,12.1-0.9,18.1-2.4c9.4,7.8,9.5,17.5,0.3,28.9c-5.4-3.7-10.4-8.3-17.7-6.4
	c-6,5.9-1.1,13.6-3.1,20.1c0.3,0.1,0.5,0.1,0.8,0.2c-0.1-1.1,0.4-1.9,1.6-2.3c3.4,6.4,1.9,16.5,13.4,16.8c10.6,0.3,19.7-1,24.4-12.4
	c1.5-3.7,4.6-6.9,7.4-10c2.2-2.4,5.3-3.5,8.6-2.3c3.7,1.3,4.4,4.7,3.9,7.7c-1.7,10.1-0.5,21-7.1,30c-23.6-0.9-47.2-0.2-70.8-0.4
	c-7.1-0.1-14-0.2-15.2-9.6c1.3-3.1,2.6-6.3,3.9-9.4c0.9-1.2,1.7-2.5,2.2-3.9c1.6-9-1.2-18.3,1.9-27.2c6.5-7.3,18.5-5.8,24-14.8
	C703.9,816,705.2,815.2,706.5,814.6z"/>
<path class="st9" d="M706,818.6c-4.4,12.2-15.7,10.7-25.2,12.8c-3.1-11.2-1.2-22.5-1.2-33c-2,20.9,1.8,42.9-1.9,64.6
	c-0.9,0-1.8,0-2.7,0.1c0-18.4-0.3-36.9,0.1-55.3c0.2-10.7-0.9-20.9-6.4-30.4c2-4.4,5.6-6.1,10.1-6c24.7,0.5,49.4-1.7,74,1.2
	c9.7,8.8,7.6,20.8,7.3,31.5c-0.2,7.7-7.6,6.3-11.8,2.7c-3.8-3.3-6.2-8.3-9.2-12.6c-8.5-12.1-17.4-13.3-30.4-4
	C703.7,799.3,702.8,808.8,706,818.6z"/>
<path class="st10" d="M823.1,859.9c9.1,12.5,24.7,13.7,34,2.5c3-3.6,5.1-8,7.6-12c7.3-3.2,13-2.5,15.4,6.3
	c-2.2,28.7-2.2,28.7-29.8,28.7c-16.7,0-33.5,0.2-50.2-0.1c-4.9-0.1-11.4,2.6-14.5-2.7c-3.8-6.5,1.4-11.6,5.2-16.5
	c5.6-11.9,1.2-24.5,2.4-36.7c0.9-8.6-0.8-17.4,1.9-29.8c9.6,12.2,7.6,23.3,7.3,33.5c-0.3,11.2,2.6,18.4,15.2,18.2
	C822,852.5,821,857.2,823.1,859.9z"/>
<path class="st11" d="M934.1,818.8c-7.1,2.9-14.1,6.4-22.1,6.3c-3.4-9.2-0.7-18.7-1.5-26c-1.5,19.9,1.8,41.9-1.6,63.8
	c-1,1.1-2.1,2.2-3.1,3.3c-0.7-28.5,4.9-57.2-3.5-85.4c0.6-4.5,2.6-8.9,7.4-8.8c25.9,0.2,52-4.2,77.7,2.4c2.5,6.1,4.3,12.4,3.6,19.1
	c-3.3,4.3,0.8,8.4,0.3,12.7c-3.3,5.3-6.9,3.8-10.7,0.5c0.4-4.1-2.1-5.7-5.6-6.4c-12-18.2-19.7-20.4-34.8-10c-1,0-1.9,0-2.9,0
	C933,799.4,938.3,809.6,934.1,818.8z"/>
<path class="st12" d="M702.8,651c-16.6-0.1-32.1-5.5-47.8-9.8c-6.1-1.7-12-2.9-18.3-2.8c-5,1.8-4.8-1.9-5.2-5
	c3.5-10.4,12.9-16.5,18.3-25.5c7.4-9.2,12.9-20.7,26.5-22.6c5.5,1.1,11.1,1.9,16.7,0.1c1.5-0.2,2.9-0.2,4.4-0.1
	c6.6,2,11.2,6.9,16.7,10.6c4.7,4.4,5.1,10.7,7.1,16.3c1.1,3.6,2.2,7.2,3.4,10.7c0.5,13.9,12.8,24.4,11.5,38.9
	c-0.5,0.6-1.1,1.1-1.6,1.7c-9.7-4.3-18-12-29.4-12.3c3.1-3.8,7.3-1.3,12.8-2.2C711.6,649.6,706.9,647.8,702.8,651z"/>
<path class="st13" d="M462,768.4c9.6,0,18.4,2.4,25.7,9c0.4,3.3,2,6.7-1.1,9.5c-5.2,4.6-11,7.1-18.1,5.5
	c-22.1-9.4-24.3-8.5-35.5,13.6c-1,1.9-2.3,3.4-4.4,4c-6.1-2.5-7.2,4.5-11.4,6.2c-13.7,5.4-20.1,1.9-21.5-13.3
	c8-22.2,24.2-33.3,47.5-34.7C449.4,770.6,455.7,770.4,462,768.4z"/>
<path class="st14" d="M601.3,616.6c5.9-9.4,2.4-17.8-2.6-26c-0.5-0.6-0.9-1.1-1.4-1.7c-0.3-1.4-0.4-2.8-0.2-4.3
	c0.5-10.4,2.1-20.8-1.3-31c-0.4-0.6-0.8-1.1-1.3-1.7c-0.9-1.1-1.7-2.3-2.4-3.6c-4.6-15.5-19.1-21.7-29.5-31.7
	c-12.5-12-25.9-23.1-35.7-37.7c-2-3.8-3.3-7.9-4.6-12c0.2-5.6,0.4-11.1,0.5-16.7c3.3,0.3,4.9,2.8,6.6,5.2
	c9,10.4,15.8,22.7,26.8,31.4c9.7,12.4,23.1,20.4,35.2,30c8.9,9.6,15.9,20.3,18.4,33.5c3.8,12.3,1.8,25,2.4,37.5
	c-0.1,4.6,0.3,9.1,1.4,13.5c0.4,5.3-1.3,10.8,1.1,16c1.5,5.3,5,9.6,7.6,14.3c0.5,1.4,0.8,2.8,0.9,4.2c-0.1,2.3-0.8,4.3-2.7,5.7
	C605.2,640,606.7,625.7,601.3,616.6z"/>
<path class="st15" d="M820,853.6c-3.6,0.7-7.2,1.1-10.7,2.1c-8.6,2.5-11.6-1-11.5-9.3c0.2-13.1,0.1-26.2-3.1-39.3
	c0,14.4,0.2,28.9-0.1,43.3c-0.1,5.4,2.5,11.8-3.9,15.8c0.3-23.2,0.3-46.4,1.1-69.6c0.3-8.6-7.4-13.9-7.2-22.1
	c1.2-1.2,2.7-1.6,4.3-1.1c8.5,7.2,15.6,16.8,29,15.2c2.6-0.3,3.9,3,3.7,5.9C820.6,814.1,823.7,834,820,853.6z"/>
<path class="st16" d="M739.7,670.3c-1.7-2.2-3.5-4.4-5.2-6.7c0,0,0-0.1,0-0.1c26.7-4.9,31.8-25.8,35.3-47.8
	c2.5-5.7,6.5-9.8,12.4-11.9c22.2,0.9,33.5,14.3,35.6,42.1c0,3.4-0.1,6.8-0.9,10.1c-0.4,1.7-1.2,3.1-2.3,4.5c-1.5,1.2-3,1.1-4.5,0
	c-6.2-1.3-0.6-14.7-9.2-11c-10.1,4.3-23.4-4.5-30.9,8.1c-3.3,5.6-8.9,8.5-13.7,12.3C750.8,672.6,745.3,671.6,739.7,670.3z"/>
<path class="st17" d="M395.7,803c6.7,14.8,16.6,16,27.9,3.4c0.9-1-0.1-5.2,3.1-2.5c1.1,1,0.6,3.9,0.9,6c1.7,1.8,2,4,1.8,6.4
	c-1.4,7.4-2.1,14.7,1.2,21.8c1.6,5.2,4.6,10.5-0.3,15.6c-9.4,3.2-18.9,6.3-28.3,9.5c-6.7-8.3-10.3-17.7-9.5-28.5
	c2.5-5.2,2.4-10.5,0-15.8C391.7,813.1,392.6,807.8,395.7,803z"/>
<path class="st18" d="M899.3,350c-1.1,1.1-2.2,2.3-3.2,3.4c-7.2,1.6-10-4.8-14.7-7.9c-9.9-8.3-20.2-15.9-32.1-21.3
	c-12.9-8.4-26.5-15.4-41.8-18.4c-4.9-1.5-9.9-2.5-14.8-4.1c-2.1-0.8-3.9-2.1-5.5-3.7c-2.1-2.2-3.6-4.7-3.8-7.8
	c0.2-2.3,1.2-4.1,3-5.6c2.3-1.8,4.9-3.1,7.5-4.3c2.8-0.9,5.6-2.1,8.1,0.5c0.5,1.5,0.3,2.8-0.5,4.1c2.1,10,12.2,8.9,18.1,10.4
	c31.9,8,56.5,26.8,79.5,48.7C901,345.9,901.3,347.9,899.3,350z"/>
<path class="st19" d="M468.9,790.2c7.2,0.7,12.5-3.7,18.6-6.3c6.1-2.4,6.7,5.1,11,6c9.4,3,10.1,11.2,11.3,19.1
	c-4,6.6-2.3,16.2-13.1,19.3c-10.6,2.9-17.4,3.9-15.6-10.3c0.3-2.8-0.4-5.7-2.5-8.6c-0.3,3.5-0.7,6.9-1,10.4
	C467.5,811.9,467.2,801.4,468.9,790.2z"/>
<path class="st20" d="M326,790.2c6,2.2,11.3,5.9,18.2,0.5c5.8-4.7,0-8.4,0.7-12.5c12.2,7.2,21.7,16.7,25,31.2
	c-6.1,11.2-16.7,14.2-28.1,15.7c-4.3,3.4,0.6,9.1-3.1,12.7c-0.9,0-1.8,0-2.7,0C329,822.7,327.9,806.4,326,790.2z"/>
<path class="st21" d="M750.2,216.5c23.4-8.3,47.4-10.5,71.8-6.2c9.3,1.6,15.7,7.6,19.8,16.1c-1,1.1-2.3,1.7-3.7,1.9
	c-1.5-0.1-2.9-0.3-4.3-0.8c-2.1-0.7-4.2-1.6-6.3-2.5c-12.6-5.7-26-3.5-39.2-3.9c-6.5,0-13-0.3-19.3,1.9c-5.2,1-10.3,1.4-15.4-0.4
	C751.2,221.3,749,219.9,750.2,216.5z"/>
<path class="st22" d="M902.5,872.6c4.2,5.4,9.8,6.6,16.5,6.5c18.3-0.4,36.6-0.2,54.9-0.1c5,0,10.7-1.6,14.4,3.7
	c-27.5,5.9-55.4,1.9-83.1,2.1C896.4,884.9,898.1,878,902.5,872.6z"/>
<path class="st23" d="M1232,771.1c-4,5-9.6,3.2-14.6,3.3c-22,0.2-44,0.2-66,0c-5,0-10.6,1.7-14.6-3.3c23.5-6.2,47.4-1.4,71.1-2.5
	C1215.8,768.2,1224.5,765.7,1232,771.1z"/>
<path class="st24" d="M670.9,872.5c4.4,5.1,9.7,6.8,16.5,6.6c18.3-0.5,36.6-0.3,54.9-0.1c5,0,10.6-1.7,14.5,3.5
	c-13.4,6.4-27.5,1.8-41.3,2.7c-13,0.8-26.1,0.3-39.1,0.1C665.8,885.2,665.3,880.1,670.9,872.5z"/>
<path class="st25" d="M987.4,774.4c-22.9,0-45.8,0.3-68.6-0.1c-6.7-0.1-12.1,1.4-16.4,6.5c-4.6-5.6-5.4-11.8,3.2-12.1
	c25.1-0.8,50.2-0.3,75.3-0.1C984.1,768.7,986.5,770.9,987.4,774.4z"/>
<path class="st26" d="M820.1,790.3c-16.4,6.3-25.7-1.5-31.7-15.8c10.7-6.1,22.3-2.6,33.5-2.5c5,0,6.4,4.5,7.4,8.7
	c-1.9,4.5-3.7,8.9-5.6,13.4C821.7,793.5,821.3,791.5,820.1,790.3z"/>
<path class="st27" d="M752.7,772.6c-21.3,3.9-42.8,0.8-64.2,1.8c-6.8,0.3-13.7-1.1-19.9,3c-1.6-4.8-0.6-8.8,5.1-8.8
	c25.5,0,51,0.2,76.5,0.6C751.1,769.2,751.9,771.4,752.7,772.6z"/>
<path class="st28" d="M851.4,620c4.8-4,9.9,3.4,14.7-0.3c5.1,10.1,10.6,20,15.1,30.4c3.6,8.3,4,17.3,1.9,26.2
	c-1.2,0.9-2.5,0.9-3.7,0c-3.3-4.5-2.3-9.8-2.3-14.9c0-2.1-0.8-3-0.5-0.9c0,0.1-0.9,0.4-1.4,0.6c-1.4-0.4-2.5-1.1-3.6-2.1
	c-5.5-10.7-10.4-21.6-18.8-30.5C850.8,626.2,849.3,623.3,851.4,620z"/>
<path class="st29" d="M810.1,660.5c1.1-0.1,2.2-0.1,3.4-0.2c4.8,0.6,7.6,3.9,8.9,7.9c4.1,12.2,12.3,21.6,20.6,31
	c-2.1,2.7,0.7,5.9-0.7,8.7C822.4,702.9,810.9,685.9,810.1,660.5z"/>
<path class="st30" d="M265.7,790.3c9.4,4.8,5.8,13.5,6.2,20.9c0.4,8.8,0.1,17.7,0.1,26.6c-1.6,8.5,4.4,19-6.2,25.3
	C265.8,838.8,265.7,814.5,265.7,790.3z"/>
<path class="st31" d="M832.6,223.4c1.2,1,2.3,1.9,3.5,2.9c5.9,9.8-0.9,17.7-3.8,26.2c-2,5.9-7.1,10.2-8.6,16.4c-1,0.8-2,1.5-3.1,2.3
	c-3.4,1.9-6.4,5.4-10.9,2.7C808.6,253,819.4,237.6,832.6,223.4z"/>
<path class="st32" d="M487.4,311.9c12.9-8.8,25.9-17.4,40.9-22.3c3.1-1.5,4.1,0.4,4.9,2.8c-5.8,11.4-16.2,17.1-27.3,21.8
	c-4.6,2-8.7,5.4-14.3,4.7C488.7,317.5,487.5,315.1,487.4,311.9z"/>
<path class="st33" d="M449.2,349.4c-1.7-6.4,4.7-8.1,7.2-12c2.7-0.3,3.9,1.5,4.6,3.7c1.4,8.2-6,15.9-1.1,24.2c1,1.6,2,3.1,3.3,4.4
	c1.8,1.6,3.9,2.8,6.1,3.8c2.8,1.3,5.9,2,8.4,3.8c0.9,1,1.3,2.2,1.2,3.5c-0.6,2.1-2.8,2.5-4.2,3.8c-12.3-0.9-22.2-5.1-25.6-18.3
	C447.1,360.7,447.1,355.1,449.2,349.4z"/>
<path class="st34" d="M459.4,341.5c-1-1.4-2-2.7-2.9-4.1c7.4-12.1,18.8-19.2,30.9-25.5c2.5,1.2,3.1,3.4,3,6
	c-0.1,0.7-0.2,1.5-0.2,2.2C481.6,329.7,473.8,340.4,459.4,341.5z"/>
<path class="st35" d="M829.2,780.6c-12.1-12.1-27.3-3.8-40.8-6.2c-1.3,0-2.5,0-3.8,0c0.1-3.6,1.8-5.9,5.5-6
	c11.4-0.1,22.8-0.5,34.1,0C833.4,768.9,835,773.6,829.2,780.6z"/>
<path class="st36" d="M680,232.4c11.1-5.4,23.3-7.3,35.2-9.7c3.8,1.1,8,1.8,7.1,7.4c-2.8,3.1-6.6,4.4-10,6.4
	c-6.9,3.7-14.2,4-21.7,2.2C686.6,237.3,682.4,236.3,680,232.4z"/>
<path class="st37" d="M579.1,267.2c8.9-5.8,19.1-8.2,28.9-11.6c4,2.5,9-1.9,12.7,2c-0.5,10.2-11.1,7.5-15.8,12.4
	c-1.2,0.9-2.5,1.6-3.8,2.1c-5.8,0.4-11.5,2.1-17.5,1.4C580.9,272.4,577.6,271.5,579.1,267.2z"/>
<path class="st38" d="M722,228.7c-2.3-2-4.5-4.1-6.8-6.1c11.2-4.6,23-6.1,35-6.1c1,1.2,2,2.3,3,3.5
	C745.2,231.3,734.5,233.5,722,228.7z"/>
<path class="st39" d="M515.2,397.1c-0.8-4.3,6.9-8.1,0.7-12.6c-1.7-1.2-3.9-1.8-4.2-4.3c0.2-1.5,1.1-2.6,2.4-3.3
	c2.2-0.7,4.4-0.7,6.6-0.3c4.4,1.3,9.2,1.5,12.5,5.3c2.9,10-0.8,17.4-9.2,22.8C519,404.5,516.6,401.4,515.2,397.1z"/>
<path class="st40" d="M515.2,397.1c3.6,1.3,6,3.9,7.4,7.4c1.2,2.5,1.3,5.2,1.5,7.9c0,1.4-0.1,2.8-0.4,4.2c-1.6,7.1,1.1,15-4.3,21.3
	c-7-1.1-2.6-6.5-3.3-9.7c-1.1-4.7,1.3-10.7-6.3-11.9C514.4,410.8,509.8,402.6,515.2,397.1z"/>
<path class="st41" d="M724.9,841.1c4-9.7,6.1-19.3-0.3-28.9c1.1-3.4,4.7-6.6,6.2-2.7c4.2,10.8,4.8,22.4-0.8,33.2
	C729.2,844.4,726.2,843.2,724.9,841.1z"/>
<path class="st42" d="M639.1,245.2c8.9-5.3,18.9-7.4,29-9.1c3.2,1.7,7.7-0.7,10.1,3.4c-7.7,12.1-19.8,11.8-31.9,11.3
	C643.2,249.7,640.6,248.2,639.1,245.2z"/>
<path class="st43" d="M820.1,790.3c1.2,1.2,2.4,2.5,3.5,3.7c-0.2,22-0.4,43.9-0.6,65.9c-2.5-1.4-2.9-3.7-3.1-6.3
	C820.1,832.5,820.1,811.4,820.1,790.3z"/>
<path class="st44" d="M579.1,267.2c1.4,2.9,4.1,3.5,7,3.8c-0.2,6.3-6,6.5-9.8,9c-6.6,2-12.4,8.5-20.2,3.3c-1.1-2.4-0.9-4.7,0.7-6.8
	C563.6,271.8,571.3,269.4,579.1,267.2z"/>
<path class="st45" d="M556.9,276.4c0.1,2.3,0.2,4.5,0.2,6.8c-6,9.5-13.6,14.9-25.2,10c-1.2-1.2-2.4-2.4-3.5-3.6
	C537,283.4,546.9,279.9,556.9,276.4z"/>
<path class="st46" d="M823.6,268.8c-0.8-15.7,12.9-27,12.5-42.6c1,0.1,2,0.2,2.9,0.3c4.6,7,3.6,14.1,0.2,21.2
	c-3.7,5.1-4.4,11.9-9.5,16.2C827.6,265.5,825.6,267.2,823.6,268.8z"/>
<path class="st29" d="M877,691.7c-4.1,4.3-4.8,12.1-12.7,12.6c-3.3-1.3-7.7,0.9-10.1-3.3c2.5-8.4,9.2-12,16.8-14.5
	C874.1,687,877.7,686.8,877,691.7z"/>
<path class="st47" d="M953.3,837.7c11.1-6.7,7.2-14.6,1.9-22.7c0.3-5,2-7.9,7.5-5c2.7,10.4,2.4,20.7,0.1,31.1
	C957,847.2,955.8,840.4,953.3,837.7z"/>
<path class="st48" d="M854.1,701.1c3.5,0.7,7.6-0.3,10.2,3.2c-6.8,4.9-13.9,7.3-22.1,3.6c-0.8-2.5-3-5.3,1.2-6.9
	C847,699.3,850.6,698.6,854.1,701.1z"/>
<path class="st49" d="M677.4,239c-3.3-0.2-7.1,0.8-9.3-2.9c3.3-3.5,7.5-3.9,11.9-3.7c3.5,1.1,8-0.3,10.3,3.9
	C687.5,244.2,682.6,242.3,677.4,239z"/>
<path class="st50" d="M586.3,784.3c-4-5.6,1.2-6.2,4.1-6.4c6.7-0.5,13.5-0.2,20.4,2.3c-2.3,0.3-4.7,0.7-7,1
	C597.9,782.2,592.1,783.2,586.3,784.3z"/>
<path class="st51" d="M620.4,641.5c0.1-2.3,0.2-4.6,0.2-6.8c3.1-2.8,6.7-4.1,10.8-3.6c0.5,0.4,1,0.9,1.5,1.3c0.3,2.6,1.1,4.9,3.8,6
	C632.4,644.8,626.8,645.1,620.4,641.5z"/>
<path class="st52" d="M512.6,381.4c1.1,1,2.2,2,3.3,3.1c-2.9,0.3-5.7,0.6-8.6,0.9c-10,1.5-20,1.7-30-0.2l-1.3,0.1
	c0,0-1.2-0.6-1.2-0.6c1.2-1.1,2.3-2.2,3.5-3.2c3.7-3.5,8.3-3.9,13-4.1C498.5,377.7,506.3,376,512.6,381.4z"/>
<path class="st53" d="M962.3,492.4c-4.3-10.6-4.7-21.1,0.3-31.5C965.2,471.4,964.7,481.9,962.3,492.4z"/>
<path class="st54" d="M877,691.7c-2.3-1-4.6-2-6.9-3c-2.8-4.3-0.5-7.7,1.7-11.2c0.9-1,2-1.7,3.2-2.2c1.9-0.4,3.4,1.4,5.2,0.9
	c0.9,0,1.9,0,2.8,0C883.4,682.3,882.8,688,877,691.7z"/>
<path class="st55" d="M620.7,258.1c-4.2-0.8-9.1,1.5-12.7-2.5c7.4-2.1,13.8-7.2,21.9-6.5c1.9,1.8,1.9,3.9,0.9,6.2
	C628.1,258.2,624.9,260,620.7,258.1z"/>
<path class="st56" d="M1054.5,885.3c8.4-4.9,16.9-4.9,25.3-0.1C1071.4,888,1063,888.2,1054.5,885.3z"/>
<path class="st57" d="M706,818.6c-3.3-9.9-7.9-19.8,2.7-28.3c-0.7,8.1-1.4,16.2-2.1,24.3C706.3,816,706.2,817.3,706,818.6z"/>
<path class="st58" d="M835.9,248.5c1.8-7.2,4.3-14.3,3.1-22c0.9,0,1.9-0.1,2.8-0.1c0.6,0.8,0.8,1.7,0.6,2.6c3.3,5-0.7,11.4,2.9,16.4
	c0.4,2.7-0.1,5-3.3,5.6C840,250.2,837.2,251.1,835.9,248.5z"/>
<path class="st2" d="M810.3,273.6c3.4-0.8,6.8-1.7,10.3-2.5c-2.4,10-11.9,10.1-19,13.8c-0.2-1.5-0.3-3-0.5-4.5
	C802.4,275.7,804.9,272.7,810.3,273.6z"/>
<path class="st59" d="M835.9,248.5c2,0.9,4.1,1.7,6.1,2.6c-4.2,4.2-3.7,12.9-12.4,12.9C831,258.5,831.8,252.8,835.9,248.5z"/>
<path class="st60" d="M630,254.5c0-1.8,0-3.6,0-5.4c3.1-1.1,5-5,9.1-3.9c2.5,0.7,5.4,0.7,6.8,3.5c-0.5,2.3-1.8,4-3.7,5.4
	C638.2,256,634.2,258.8,630,254.5z"/>
<path class="st61" d="M962.7,841.2c0-10.4-0.1-20.8-0.1-31.1C967,820.4,966.5,830.8,962.7,841.2z"/>
<path class="st62" d="M440,885.1c7.4-4.6,14.8-5,22.2,0.3C454.7,888.1,447.3,887.9,440,885.1z"/>
<path class="st63" d="M588.8,885.3c7.3-5.1,14.7-4.9,22.1-0.1C603.6,888,596.2,887.9,588.8,885.3z"/>
<path class="st64" d="M477.3,385.2c10,0.1,20,0.1,30,0.2C497.3,388.4,487.3,388.8,477.3,385.2z"/>
<path class="st65" d="M706.4,852.8c-0.4,2.3-0.7,4.7-1.1,7c-1.3-8.6-6.5-17.6,1.8-25C706.9,840.8,706.7,846.8,706.4,852.8z"/>
<path class="st66" d="M1131,790.4c4,5.6,4.4,10.9-0.9,15.9C1125.6,800.8,1130.3,795.7,1131,790.4z"/>
<path class="st67" d="M899.3,350c0-2,0-4-0.1-6c5.2,2.9,9.2,6.9,11.9,12.3C905.9,356.4,903.5,351.5,899.3,350z"/>
<path class="st68" d="M1073.4,768.3c-7.4,4.6-14.7,4.7-22-0.1C1058.8,766.6,1066.1,766.7,1073.4,768.3z"/>
<path class="st69" d="M535.2,812.5c4.5,7.4,4.7,14.7-0.2,22C533.1,827.2,533.2,819.9,535.2,812.5z"/>
<path class="st20" d="M370.5,838.7c0-8,0-16,0-24.1C374.1,822.7,374.1,830.7,370.5,838.7z"/>
<path class="st70" d="M498.4,789.9c-3.7-2-7.3-4-11-6c-0.4-2.2-3.5-4.5,0.3-6.5C493.2,780,497.6,783.4,498.4,789.9z"/>
<path class="st71" d="M880.1,856.7c-3.9-5.2-9-7.3-15.4-6.3C876,844.5,879.7,846.1,880.1,856.7z"/>
<path class="st72" d="M702.8,651c4.4-5.1,9.9-3.3,15.4-1.1c-4.4,0.5-8.8,1-13.2,1.5c0,0-1.2,0.4-1.2,0.4L702.8,651z"/>
<path class="st73" d="M601.4,768.2c-6.2,4.6-12.5,4.4-18.8,0.2C588.9,766.8,595.1,766.7,601.4,768.2z"/>
<path class="st74" d="M991.3,806.1c-4.6-4.1-4.5-8.3-0.3-12.7C991.5,797.7,995,801.8,991.3,806.1z"/>
<path class="st75" d="M462,768.4c-6.3,4.3-12.6,4.4-18.8-0.1C449.4,766.8,455.7,766.9,462,768.4z"/>
<path class="st76" d="M1092.4,806.3c3.1-4.2,6.3-4.3,9.6-0.2C1098.9,808,1095.7,809.2,1092.4,806.3z"/>
<path class="st72" d="M553.6,575.6c2.1-3.6,4.1-1.6,6,0.2c2,2,3.2,4.2-0.4,5.9C557.3,579.7,555.5,577.7,553.6,575.6z"/>
<path class="st77" d="M392.5,818.8c4.5,5.3,4.5,10.5,0,15.8C391.1,829.3,391.2,824,392.5,818.8z"/>
<path class="st78" d="M845.3,245.4c-5.4-4.7-2.4-10.8-2.9-16.4C849.6,233.4,846.4,239.6,845.3,245.4z"/>
<path class="st79" d="M642.9,806.2c-4.3-3-4.5-6.2-0.4-9.6C643.7,799.8,646.3,802.9,642.9,806.2z"/>
<path class="st80" d="M739.7,670.3c5.6-0.2,11.1-0.3,16.7-0.5C750.9,675.2,745.3,673.9,739.7,670.3z"/>
<path class="st81" d="M449.2,349.4c0,5.6,0,11.3,0,16.9C445.6,360.7,445.8,355.1,449.2,349.4z"/>
<path class="st82" d="M994.5,856.8c-4.1-3.1-4.3-6.3-0.1-9.5C998.1,850.4,996,853.6,994.5,856.8z"/>
<path class="st83" d="M1073.7,849.8c2.7-3,5.2-1.9,7.3,0.6c1.9,2.2,1.6,4.5-0.9,6.2C1078,854.4,1075.8,852.1,1073.7,849.8z"/>
<path class="st71" d="M975.1,800.3c2.3-3.6,4.2-1.2,5.9,0.5c2,2,3.1,4.1-0.4,5.9C977.8,805.3,975.8,803.4,975.1,800.3z"/>
<path class="st84" d="M1238.3,806.1c-4.1-3.1-4.2-6.3-0.2-9.5C1239.5,799.8,1241.8,802.9,1238.3,806.1z"/>
<path class="st3" d="M611.5,603.2c-3-3.7-5-7.7-3.5-12.6c3.2-8.1,0.1-16.6,1.8-24.8c17.9-11.2,37.8-17.9,57.2-25.8
	c76.5-31.1,152.5-63.4,228.8-94.8c11.2-4.6,22.8-8,33.7-13.4c4.9-2.4,10-3.4,15,0.1c6.5,24,1.8,35.6-16.9,41.4
	c-4.8-2-8.4,1.3-12.5,2.6c-4.2,1.6-9.6-0.7-12.9,3.8c-0.5,2.8-2.5,4.4-4.5,6c-3.3,2.1-5,5.9-8.6,7.7c-1.4,0.1-2.6-0.3-3.7-1.1
	c-0.8-1.1-1.4-2.3-2-3.5c-8.5-5.1-14.7,2.1-21.5,4.5c-14.8,5.2-28.6,13.6-44.8,14.1c-5.6-0.2-6.5,5.8-10.4,7.9
	c-19.6,9.9-40.6,16.6-60.5,25.8c-8.5,3.9-18.1,9.9-27.1-0.1c-3-4.3-5.5-3.4-8.1,0.5c-2.8,4.3-4.3,9.3-7.5,13.4
	c-4.8,6-11.6,8.8-18.5,11.6c-15.6,6.4-31.2,12.6-46.8,19.1C628.2,590,620.1,596.9,611.5,603.2z"/>
<path class="st85" d="M944.6,432c-29.9,8.2-57.7,21.9-86.2,33.6c-63,25.6-125.8,52-188.9,77.5c-19.3,7.8-37.2,19.6-58.5,22.3
	c-2.7-3.7-1.3-7.9-1.4-12c3.4-6,9.8-7.7,15.6-10c67-26.9,133.3-55.4,200.3-82.1c8.8-3.5,17.4-7.5,24.4-14.2
	c10.9,2.7,8.4-3.9,6.8-9.8c23.9-15.3,49.4-26.4,77.6-30.8C939.6,414.2,943.2,422.7,944.6,432z"/>
<path class="st1" d="M874.5,676.2c-1.4,4.2-2.9,8.3-4.3,12.5c-5.4,4.2-10.7,8.3-16.1,12.5c-3.5-1-7.1,4-10.6-0.1
	c-11.5-5.7-18.7-15.1-22.4-27.1c-1.6-5.2-3.8-9.7-7.5-13.5c0.3-1.1,0.6-2.1,0.9-3.2c2.2-2.4,2.6-5.5,3.3-8.5c0.1-0.6,1.4-1.7,0-1.9
	c-0.5-0.1-1.5,1-2.7,0.7c-2.7-26.2-11.4-37.1-32.9-40.9c-0.5-9.3,5.1-13.9,12.8-17.4c10.5-4.8,21.3-8.7,31.7-13.7
	c10.2-4.9,14.6-1.1,15.3,9.3c0.9,5.3,1.6,10.5-0.5,15.7c0.8,7.8,3.5,14.7,10.1,19.7c7.9,13.4,21.1,23.7,23,40.4c0,0.7,0.1,1.3,0.1,2
	c-0.1,3.9,0,7.9,0.1,11.8C874.6,674.9,874.5,675.5,874.5,676.2z"/>
<path class="st86" d="M934.4,406.5c-25.3,11.5-52.3,18.7-76.5,32.8c-4.3,1.6-6.9,5.9-11.2,7.6c-16.8,5.2-32.7,13.4-50.1,16.9
	c-4.4,0.9-8.8,4.1-12.6-1.2c0-12.7,12.1-17.5,17.4-26.6c1-0.8,2.2-1.4,3.4-1.7c4.6-3.4,1.4-9.9,5.1-13.7
	c11.7-12.8,28.6-15.2,43.3-22.1c13.4-6.3,27.3-11.2,40.8-17.2c10.2-4.5,19.2-5.3,27.1,3.8C925.6,392.1,930,399.3,934.4,406.5z"/>
<path class="st87" d="M928.4,483.2c8,1,13.1-5.9,21.3-8.4c2.3,27.1-7.3,50.1-21.1,71.3c-16,24.7-37.7,43.9-62.7,59.3
	c-5.8,3.6-12.3,7.9-16.4-2.3c-7.1-9.2-6.4-17.2,3.8-23.6c6.7-2,15,3.7,20.3-4.6c9.1-9.5,24.6-13.2,26.4-29.2
	c3.6-10.2,0.5-19.9-2.4-29.5c-0.3-1.4-0.3-2.9-0.3-4.3c1.4-6.3,1.5-12.6,0.2-18.9c-0.1-1.5,0.2-2.9,0.7-4.3c1.7-2.7,4.1-4.3,7.1-5
	c3-0.6,5.7,0.9,8.5,1.1c4.1,1.2,8.1,2.6,12.3,0.5C926.5,484,927.1,483.3,928.4,483.2z"/>
<path class="st88" d="M921.3,384.9c-9.5-6-18.2-3.4-27.7,1c-27.6,12.5-57.1,20.7-83,37c-2.8-1.8-4-5-6.3-7.2c-1-1-1.8-2-2.7-3.1
	c-3.7-6-9.2-11.4-8.1-19.4c2-6.7,6.8-10.6,13.2-12.5c10.7-3.1,20-9.5,30.5-13c10.4,4.7,10.6-8.4,17.3-10c10.7,1.2,18.7-5.7,27.7-9.5
	c8,0,10.2,9.3,17.1,11C909.1,365.7,915,375.4,921.3,384.9z"/>
<path class="st89" d="M858.1,581.2c-14.1,2.9-8.6,13.5-8.6,21.9c-2.7-0.9-5.4-1.9-8.1-2.8c-3.8-4.9-1.8-10.5-2.1-15.9
	c1.1-11.8,10.4-15.9,19.4-17.8c16.2-3.4,27.4-12.3,35.2-26.3c4.8-2.7,6.9,0.1,8.5,4.1c0.1,0.7,0.3,1.5,0.4,2.2
	c-0.6,19.3-17.5,22.8-29.8,30.8C868.7,581.1,863.5,581.7,858.1,581.2z"/>
<path class="st90" d="M899.4,359.2c-8.9,3.1-9.3-8.5-16-9.2c-2.4-1.1-4-2.9-3.1-5.6c0.5-1.6,2.1-1.4,3.5-0.9
	c4.1,3.3,8.1,6.6,12.2,9.9C897.2,355.3,898.3,357.2,899.4,359.2z"/>
<path class="st91" d="M915.2,476c0.4-7.2,2.9-7.8,12.5-2.6c-1.1,1.1-2.2,2.1-3.3,3.2c-3,2.4-6.2,1.9-9.4,0.5L915.2,476z"/>
<path class="st92" d="M905.6,486.1c-1.9,1.3-3.9,2.7-5.8,4c-3-1.2-4.6-3.1-3.5-6.5c2-1.3,4.1-2.5,6.1-3.8c3.4,0.3,7.3-0.5,9.6,3.2
	C910.4,485.2,907.2,484,905.6,486.1z"/>
<path class="st37" d="M905.6,486.1c1.4-2.5,3.8-3.1,6.4-3.1c5.5,0.1,11,0.2,16.4,0.3c-0.4,0.8-0.8,1.7-1,2.6
	c-3.9,3.1-8,2.2-12.1,0.6C912,486.3,908.8,486.2,905.6,486.1z"/>
<path class="st93" d="M915.1,477.1c3.1-0.2,6.2-0.4,9.4-0.5c0.9,0.2,2.2,0.2,2.8,0.8c1.5,1.5,0.3,2.3-1.2,2.4
	C922.1,479.8,918.1,480.6,915.1,477.1z"/>
<path class="st94" d="M954.3,473.8c2.4,3.2,2.7,6.4,0.5,9.6C951.9,480.3,953.8,477,954.3,473.8z"/>
<path class="st95" d="M338.6,837.7c0-5.3-0.1-10.5,0.1-15.8c0-1-0.8-4.1,1.9-2.6c1.1,0.6,0.8,3.7,1.2,5.7
	C341.2,829.4,343.2,834.4,338.6,837.7z"/>
<path class="st96" d="M331.5,852.5c1.3-3.9,2.6-7.7,3.9-11.6C340.1,846.8,340,851.1,331.5,852.5z"/>
<path class="st97" d="M908.9,862.9c0-22.9,0-45.8,0-68.7c1,0,2.1-0.1,3.1-0.1c0,10.3,0,20.7,0,31
	C910.3,837.6,915.3,850.7,908.9,862.9z"/>
<path class="st98" d="M934.1,818.8c1.4-9.5-3.2-19.6,3.1-28.5C935.9,799.7,940.4,809.8,934.1,818.8z"/>
<path class="st99" d="M934.9,859.7c0-7.3,0-14.5,0-21.8c0.5,0,1,0,1.5,0c0,7.3,0,14.5,0,21.8C936,859.7,935.4,859.7,934.9,859.7z"/>
<path class="st100" d="M949.5,874.2c3.3-2.2,6.5-1.9,10.8-0.1C956.2,876.4,953,876.5,949.5,874.2z"/>
<path class="st101" d="M522.1,410.2c-5.2-2.4,1.2-3.7,0.5-5.6c4-7.2,9-14,9.9-22.6c1.3-2.1,3.4-3,5.7-3.6c4.5-0.8,9-1.1,13.3-2.9
	c5.9-1.8,11.7-3.8,17.9-4.3c8.3-0.9,16.4-3,24.6-4.7c2.9-0.8,5.8-1.4,8.7-2.1c6.7-3.1,13.5-5.7,20.6-7.5c3.5-1.1,7-2.2,10.5-3.5
	c9.9-3.4,20.1-6.2,30.1-9.4c7.7-3.1,15.1-6.9,23.1-9.2c11.7-2.4,22.4-7.5,33.3-12.2c3.3-1.6,6.7-3,10.1-4.2c6.8-2,13-5.4,19.3-8.6
	c6.8-3.5,14-6.3,20.9-9.6c2.4-1.4,4.9-2.9,7.4-4.2c3.4-1.5,6.9-2.7,10.3-0.1c1.1,1.1,2.2,2.2,3.3,3.3c4.8,2.9,10.1,3.8,15.6,3.8
	c16.5,2.1,31.5,7.9,44.4,18.7c0.1,11.7-10,13.6-17.5,17.2c-21.3,10.1-44,16.7-65.1,27.9c1,4.1,8.5,6.9,3.1,12.7
	c-10,3.3-18.5-4.5-28.2-3.5c-10-2.8-20-3.6-30-0.4c-21.4,0.1-38.5,9.6-52.8,24.8c-1,1.1-2.1,2.2-3.2,3.2c-2.3,2-4.4,4.3-7.2,5.7
	c-39.1,13.3-76.3,31.1-114.4,46.7c-3.2,1.3-6,4.7-9.9,1.6c-0.8-2.7-0.4-6-3.8-7.4c0-2.9,0-5.7,0-8.6
	C521.6,431.2,523.4,420.6,522.1,410.2z"/>
<path class="st87" d="M528.5,477c16.7,18.8,34.2,36.8,55.2,51.1c6.5,4.5,10.8,12.6,11.4,21.5c-0.2,13.9,7,29-6.2,41
	c-4.3-3.8-8.7-7.7-13-11.5c-2.5-6.1-6.2-10.9-12.6-13.2c-21.5-23.5-31.3-52.3-38-82.5C523.4,479.6,525.7,478.2,528.5,477z"/>
<path class="st102" d="M588.9,590.6c4.7-7.7,2.5-16.4,3.2-24.6c0.4-5.5-2.1-11.7,3.1-16.4c0,0,0.2-0.3,0.2-0.3
	c6.4,13.5,1.3,27.7,2.6,41.5c0,0,0.7-0.2,0.7-0.2C595.4,601.9,592.1,592.1,588.9,590.6z"/>
<path class="st103" d="M522.1,410.2c5.6,10.3,4.5,20.9,0.8,31.4c-0.6-0.8-0.9-1.6-1-2.6c-1.8-8.6-2-17.3,0.1-25.9
	C522.3,412.1,522.3,411.2,522.1,410.2z"/>
<path class="st104" d="M528.5,477c-1.1,2.1-2.2,4.2-3.3,6.3c-3.6-5-4.6-10.4-2.9-16.4C525.8,469.3,527.5,472.9,528.5,477z"/>
<path class="st105" d="M563.2,565.8c9.9-1,11.6,5.8,12.6,13.2C571.6,574.6,567.4,570.2,563.2,565.8z"/>
<path class="st106" d="M522,413.1c0,8.6-0.1,17.3-0.1,25.9c-0.8-0.3-1.6-0.6-2.4-1C519.9,429.7,516.1,420.9,522,413.1z"/>
<path class="st107" d="M677.6,863c0-22.9,0-45.9,0-68.8c1,0,2.1-0.1,3.1-0.1c0,12.4,0,24.9,0,37.3C679.2,841.9,683.9,853,677.6,863z
	"/>
<path class="st108" d="M729.3,873.7c-4.2,3.2-7.4,1.6-11.9,1.9C721.4,871.5,724.6,872.7,729.3,873.7z"/>
<path class="st4" d="M611.5,603.2c2.6-8.9,8.5-13.1,17.2-17.4c24.3-12.1,51.4-18.1,74.3-33.2c8.5-2.7,9-14.6,18.6-16.2
	c1.1,7.6,6.3,7.7,11.7,5.6c20.9-8.2,41.6-17,62.6-24.7c3.3-1.2,4.5-15.6,11.1-2.6c2.2,1.3,3.3,3.5,4.1,5.8c3.6,12.5-5,16.9-14,21
	c-26,11.6-52.8,21.4-79,32.7c-7.9,3.4-15.1,7.4-21.5,13c-1.1,0.2-2.2,0.4-3.3,0.6c-5.2,2.1-10.4,2-15.7,0.1
	c-13.1,1.9-17.6,13.9-25.5,21.9c-10.8-1.4-20.4,1.8-29.6,7.2c-3.3,2-6.4,6-11.1,2.3C608.8,613.9,609.7,608.5,611.5,603.2z"/>
<path class="st9" d="M696.5,587.2c-1.2-9.4,6.5-11.1,12.5-13.6c28.4-11.8,56.9-23.2,85.3-35.1c7.7-3.2,18-5.4,13.5-18.1
	c3.7-1.5,7.6-0.2,11.3-0.4c12.5,0.2,23.1-6.1,34.2-10.5c8.7-3.4,16.9-8.4,26.9-7c3.4,0.3,4.6,4.8,8.3,4.7c1.3,0.4,2.4,1.1,3.2,2.3
	c1.7,3.3,2.9,6.6,2.6,10.4c-0.5,1.5-1.3,2.8-2.5,3.8c-51.1,22.8-103.3,42.8-154.7,64.6c-8.2,3.5-15.8,8.8-25,9.5
	C705.4,596.4,701.6,590.8,696.5,587.2z"/>
<path class="st11" d="M896.8,540.1c-4.9,17.6-17,26.4-34.6,29.3c-9.7,1.6-17.6,6.6-23,15.1c-2.8-3.8-2.3-12-11.4-5.9
	c-7.7,5.1-16.8,8.3-25.6,11.5c-8.8,3.3-16.4,7.4-20.2,16.5c-3.2,3.2-6.4,6.3-9.6,9.5c-5.3-7.6-11.3-5.6-18.4-2.4
	c-10.3,4.7-20.6,10.5-32.7,9c-3.1-2.4-2.8-6.1-3.6-9.3c1.1-7.1,6.2-10.8,12.1-13.5c50.4-22.7,101.6-43.8,153.3-63.4
	c3.9-1.5,8.1-2.6,12.3-0.7C896.9,536.9,897.4,538.3,896.8,540.1z"/>
<path class="st109" d="M895.6,536.8c-55.5,18.8-108.8,42.8-162.6,65.7c-6,2.5-10.3,6.9-15.2,10.8c-4.4-4.3-0.9-11.4-5.7-15.6
	c20.4-15.5,45.1-21.9,68.2-31.4c37.3-15.3,73.8-32.8,112.2-45.4c6.1,1.9,6.9,6.5,6.1,12C898.1,534.7,897.1,535.9,895.6,536.8z"/>
<path class="st1" d="M721.4,622.6c16.9-6.6,33.7-13.3,50.3-19.8c4,5.2-5.7,9.2,0.9,13.1c0.6,7.5-1,14.8-3.4,21.7
	c-7.5,22.1-11.1,24.6-34.6,25.9C733.3,648.9,721.2,637.7,721.4,622.6z"/>
<path class="st87" d="M693.1,597.5c15.5,10.5,20.9,25.6,19.8,43.6c-5-3.3-11.3,0.4-16.3-2.7c-14.9-2-29-6.9-45.3-12.2
	c10.2-9.7,13.6-23.1,26.4-28.8C682.8,599.6,688,597.1,693.1,597.5z"/>
<path class="st6" d="M611.5,619.2c8.3-5.2,17.1-9.3,26-13.5c7.1-3.3,10.6-0.4,14.7,4c-5.4,8.4-10.9,16.7-19.1,22.8
	c0,0,0.2-1.1,0.2-1.1c-4.3-1-8.5,1.1-12.7,0.6C615.4,629.1,613.7,624,611.5,619.2z"/>
<path class="st110" d="M693.1,597.5c-5.2,4-10.3,4-15.4-0.1C682.9,595.5,688,593.3,693.1,597.5z"/>
<path class="st111" d="M696.6,638.4c5.6,0.1,11.4-1,16.3,2.7C707.4,640.7,701.4,643.4,696.6,638.4z"/>
<path class="st112" d="M677.6,587.8c5.2-1.7,10.4-2,15.7-0.1C688.1,592.2,682.9,592.1,677.6,587.8z"/>
<path class="st86" d="M605.2,549.5c-1.3-12.8-9.8-21.8-16.9-31.5c-1.2-5.2,0-10.1,4.8-12.2c16.5-7.3,32-17,49.5-22.4
	c13.6,1.2,24.9-5.7,36.8-10.5c8.1-3.3,15.5-8.4,24.4-9.6c9.1-0.5,17.6,2.9,26.5,3.8c6,2.1,12.2,2.3,18.4,2.1
	c6.3,0.4,11.6-3.7,17.8-4c3.4,0.6,5.9,2.3,6.9,5.8c-0.9,4.9-4.8,6.5-8.7,8.1c-43.8,17.3-86.9,36.4-130.6,54
	c-9,3.6-16.6,8.7-22.3,16.7C609.6,551.2,607.3,551.3,605.2,549.5z"/>
<path class="st113" d="M526.6,457.6c27.1-15.9,57-25.4,85.7-37.7c12.8-5.5,24.9-14,39.9-13c4.3,3.2,3,9.2,6.4,12.8
	c1,1.1,1.8,2.3,2.7,3.5c3.6,7,11.5,12.7,7,22.3c-7.9,0-15.4,1.7-22.7,5c-30.1,13.8-61.7,24.2-91.5,38.6
	C541.1,481.9,536.5,467.4,526.6,457.6z"/>
<path class="st88" d="M554,489.1c0.3-4,1.8-7.2,5.8-8.6c32.4-10.8,63.6-24.6,94.6-38.6c6.5-2.9,9.7,1.6,14.4,2.7
	c5-0.7,8.2,2.5,11.6,5.4c1.5,1.9,2.1,4,1.7,6.4c-12.8,11.6-26.7,20.6-45.2,18c-2.5-0.3-4.9-1.6-8.7-0.2c3.7,5.4,10.7,3.8,14.4,7.8
	c0.8,1.3,0.8,2.7,0,4c-15.3,10.2-32.9,15.4-49.4,23.1c-4.1,1.9-1.2,7.1-5,8.8C575.5,510.1,562.8,501.9,554,489.1z"/>
<path class="st114" d="M605.2,549.5c1.9,0,3.9,0,5.8,0c0.8,0.7,1.1,1.4,0.8,2.1c-0.3,0.7-0.5,1.1-0.8,1.1c0,4.2,0,8.5,0,12.7
	c-1.4,8.4,2.9,17.4-2.9,25.2C605.5,577,609.4,563,605.2,549.5z"/>
<path class="st115" d="M597.9,590.8c-5.9-13.5-1.4-27.7-2.6-41.5c0.8,0.2,1.6,0.3,2.5,0.2c3.9,12.5,2,25.1,1.1,37.7
	C598.5,588.4,598.2,589.6,597.9,590.8z"/>
<path class="st116" d="M598.8,587.2c-0.3-12.6-0.7-25.1-1.1-37.7C604.2,561.9,602.6,574.5,598.8,587.2z"/>
<path class="st117" d="M620.4,632c4-4.6,8.3-4.3,12.7-0.6c-3.9,2.3-7.8,4.3-12.5,3.3C620.5,633.8,620.5,632.9,620.4,632z"/>
<path class="st118" d="M802,633.2c-7.8,0-15.6,10.7-22.3,1.3c-2.6-3.7,0.7-12.3,4.4-13.8C793.9,616.7,796.3,627.6,802,633.2z"/>
<path class="st119" d="M814.9,647.4c1.2-3.1,2.3-6.1,3.5-9.2c0.1,6.7,6.3,14.8-4,19C814.6,653.9,814.7,650.6,814.9,647.4z"/>
<path class="st13" d="M427.1,815.6c0,7.4,0,14.7,0,22.1C422.4,830.3,422.3,823,427.1,815.6z"/>
<path class="st120" d="M772.6,378.3c-0.1-6.7-7.1-7-11.5-11.6c21.8-12.8,45.3-19.7,67.5-29.6c8.6-3.8,18.1-6.3,23.1-15.4
	c12.4,4.8,23.1,12,32.1,21.7c-3.9,2-0.8,4.3-0.4,6.5c-8.9,5.9-16.7,15.8-29.5,9.2c-4.2-3-6.2-0.5-7.8,3.2c-1.4,2.9-1.6,7.2-6.6,6.7
	c-9.5,6.2-19.2,12.2-30.3,14.6c-6.8,1.5-10.2,6.2-14.3,10.7C783.5,394.5,776.2,389,772.6,378.3z"/>
<path class="st121" d="M810.3,273.6c-3.1,2.3-6.1,4.5-9.2,6.8c-2.1,0.8-4.3,1.6-6.4,2.5c-5.8-8.2,1.3-14.2,3.7-21
	c2-5.8,7.4-9.8,8.5-16c-7.4-5.8-15-2.1-22.6-0.7c-2.2,0.6-4.4,0.9-6.7,1.1c-11.1-0.3-21.7,2.7-32.4,4.9c-4.5,1.2-9.1,1.7-13.5,3.2
	c-4.4,1.1-9,1.8-13.3,3.3c-5.3,1.2-10.7,2.6-16,3.7c-3.3,0.4-6.6,0.3-9.9-0.3c-5.7-1.7-11.3,1.3-17,0.4c-3.7-0.5-7.5-1.3-8.5-5.5
	c-1-4.2,2-6.9,5.3-8.5c6.1-2.8,12.2-5.8,19.3-4.4c14,5.1,26.9-0.3,40.1-3.8c18.2-6.1,37.2-8.6,56.1-11.4
	c-21.9,1.4-43.4,4.8-64.3,11.9c-4,1.2-8,2.5-11.9-0.4c-1.3-2.5-0.9-5,0.4-7.4c2.6-3.2,6.6-2.2,10-3.2c10.7-1.9,21.4-3.7,31.2-8.7
	c5.4,0,10.7,0,16.1,0c5.9-3.8,13,0.6,18.9-2.8c15.1-0.5,30.6-3.6,44.3,6.1C825.6,240.3,813.8,255.1,810.3,273.6z"/>
<path class="st122" d="M788,286c-1,1.1-2,2.3-3,3.4c-2.1,3.4-5.2,5.7-8.5,7.8c-3,1.5-5.9,3.3-9.5,3.5c-1.4-0.2-2.7-0.6-4-1.3
	c-9.5-7-4.7-15.9,0.9-19.6c6.2-4.1-0.1-7.1,1.8-10c2.5-4.3,6.9-5.3,11.2-6.7c6.8-2.1,11.6-10.5,20.3-6.4c4.2,5.4-0.9,8.6-3.2,12
	C790.2,274.1,788.7,279.8,788,286z"/>
<path class="st123" d="M788,286c-4.5-3.5-6.7-6.9-1.7-12.2c4.4-4.7,7.7-10.6,11.5-16c-2.1-11,4.4-12.8,13.1-12.2
	c-3.8,13.1-16.1,22.6-16.3,37.3C792.5,283.9,790.3,285,788,286z"/>
<path class="st124" d="M807.3,303c-6.7,5.1-11.2,0.9-15.6-3.8C797.3,298.8,802.6,299.6,807.3,303z"/>
<path class="st125" d="M775,295.7c2.6-3.3,5.3-6.4,10.1-6.3c1.1,2.2,2.2,4.3,3.3,6.5c-3.2,1-6.3,2.1-9.5,3.1
	C777.4,298.1,775.4,297.8,775,295.7z"/>
<path class="st126" d="M788.3,217.2c-5.7,5.2-12.6,1.9-18.9,2.8C775.1,215.2,781.9,217.5,788.3,217.2z"/>
<path class="st127" d="M880.3,676.2c-1.3,2.4-2.4,1.8-3.4-0.3c-3.7-5.1-3.7-10.2,0-15.3C883.9,664.6,878.6,671.2,880.3,676.2z"/>
<path class="st128" d="M876.9,660.7c0,5.1,0,10.2,0,15.3c-0.8,0.1-1.6,0.2-2.4,0.2c0,0-1.3,0-1.3,0c-1.2-5.2-1.1-10.5-0.1-15.7
	c0,0,1.3-0.1,1.3-0.1C875.3,660.5,876.1,660.6,876.9,660.7z"/>
<path class="st129" d="M531.9,293.2c9.7-0.1,17-6.2,25.2-10c6.1-2.1,12.3-4.3,18.4-6.4c3.5-1.7,5.5,0.4,7.5,2.8
	c0.9,3.6-1.2,6.1-3.8,7.6c-5.2,3.1-5.9,5.2,0.7,6.8c-6.4,9.4-18.9,7.8-26.6,14.8c-4.4,3.2-9,5.7-14.5,6.6
	c-9.4-0.5-15.9,8.7-25.5,7.7c-5.3-2.2-9.3-5.7-10.8-11.5C512.4,305.6,522.1,299.4,531.9,293.2z"/>
<path class="st130" d="M502.7,311.7c4.6,2,7.9,5.2,10.1,9.7c-0.9,5.1-5,8.3-7.7,12.3c-4.7,4.6-9.5,8.9-15.4,11.9
	c-3.7,1.2-7.3,1.3-10.7-1c-3.5-6.6,2.8-8.1,6.1-10.2c6.3-3.9,8.1-8.8,5.9-15.6c0,0-0.6-1-0.6-1C494.5,315.9,498.6,313.8,502.7,311.7
	z"/>
<path class="st131" d="M491.1,318.9c9.1,3.8,10,8.6,1.8,14.5c-4.9,3.5-9.9,6.8-14.9,10.3c-0.3,0.6-0.7,1.3-1,1.9
	c-8.3,6-12.2,15.4-18,23.2c-11-9.3-0.2-18.2,0.4-27.3C470,333.9,480.5,326.4,491.1,318.9z"/>
<path class="st132" d="M477.9,343.6c4.3,0,8.5,0,12.8,0c0.4,0.6,0.8,1.2,1.2,1.8c-2.9,6.3,3.1,8.3,5.8,12c-1.1,4.5-4.9,5-8.6,5.8
	c-9.9-0.7-12.7,10.5-21,12.5c-2.4-0.4-5.1-0.5-6.1-3.4C460.7,359.1,467.9,350.6,477.9,343.6L477.9,343.6z"/>
<path class="st133" d="M468.1,375.7c5.7-6.4,7.1-17.7,19.3-16.3c7.3,5,4.1,10.7,1.1,16.3c-3,3-7.1,2.5-10.8,3.1
	C474.5,377.9,470.4,379.3,468.1,375.7z"/>
<path class="st134" d="M477.7,378.9c2.2-4,6.1-3.5,9.7-3.6c14.4-5.6,28.8-10.2,44.1-3.4c2.2,5-1.9,5.7-4.9,7.2c-2.4,1-4.9,1.1-7.3,0
	c-2.2,0-4.5,0.1-6.7,0.1c-7.1,2.5-14.7-1.1-21.7,2.2c-4.2,0-8.4,0.1-12.6,0.1C478,380.6,477.8,379.7,477.7,378.9z"/>
<path class="st135" d="M477.9,343.6c-7.5,8.3-12.6,18-16,28.7c-1-1.2-2-2.4-3-3.5C460,356.4,465,347.1,477.9,343.6z"/>
<path class="st136" d="M712.1,231.9c0.1,2.4,0.2,4.8,0.3,7.2c-5.5,4.7-11.3,8.2-19,6.3c-8.7,0.7-17,2.7-24.2,8.6
	c6.8,11.1,18-4.9,24.4,4.8c-1.3,7-7.9,5.7-12.3,8c-5.7,1.5-11.1,4-16.6,6c-2.2,0.5-4.5,0.6-6.7,0.3c-12.9-3.5-22.7,6.7-34.6,7.6
	c-7.7-0.8-18.5,0.8-10.4-12.8c1.2-1,2.5-1.7,3.9-2.4c5.6-1.4,10.7-4,15.3-7.6c5.4-2.9,11.5-3.7,17.2-5.7c-2,0.6,1.9-0.5,0.1,0
	c-2.7,1.7-4.9,1.4-7-0.6c1.1-1,2.3-1.9,3.4-2.9c11.2-1,21.8-3.9,31.5-9.7c4.2-1.3,9.4,1.8,12.9-2.7
	C697.6,235,705.7,237.8,712.1,231.9z"/>
<path class="st137" d="M617.3,267.6c-0.9,2.7-6,3.6-4.5,6.9c2.2,4.5,7.1,1.9,10.8,2.6c1.1,1.1,1.6,2.5,1.5,4.1
	c-1.7,5-6.4,5.9-10.5,7.7c-4.1,1.4-8.3,2.8-12.7,3.3c-7.6-1.5-14.9,5.6-22.6,0.8c-2.4-0.6-4.9-1.1-7.3-1.7c1.1-1.7,1.9-3.7,3.3-5.1
	c2.2-2.2,4.8-4,7.2-5.9c3.6-8.4,13.1-6.1,18.8-10.5c-0.3-0.7-0.3-1.5,0-2.2C606.7,267.6,612,263.2,617.3,267.6z"/>
<path class="st138" d="M617.3,267.6c-5.3-1-10.6,3.5-15.9,0c5-6.2,14.1-3.9,19.4-9.4c3.1-1.2,6.2-2.4,9.2-3.6
	c4.1-1,8.3-1.9,12.4-2.9c2,0.2,4,0.4,6.6,0.6c-3.8,6.3-12.2,3.6-15.9,9C628.1,263.9,622.3,264.7,617.3,267.6L617.3,267.6z"/>
<path class="st139" d="M601.3,269.8c-3.8,8-12.9,6.4-18.8,10.5c-2.3-1.2-4.6-2.3-6.9-3.5c3.5-1.9,7.1-3.9,10.6-5.8
	C591.2,270.8,596,266.5,601.3,269.8z"/>
<path class="st64" d="M490.9,381.4c6.9-3.8,14.4-2.1,21.7-2.2c0.1,0.8,0.1,1.5,0,2.3C505.3,381.4,498.1,381.4,490.9,381.4z"/>
<path class="st140" d="M519.3,379c2-0.2,4-0.4,6.1-0.6c4.8-1.3,10.3-5.3,12.6,3.2c-1.8,0.2-3.6,0.3-5.4,0.5
	C528.1,381.2,523,383.1,519.3,379z"/>
<path class="st4" d="M883.4,505.2c-17.2-0.8-30.5,10-45.6,15.3c-7.1,2.5-13.9,4.1-21.3,3.5c-4-5.9-4.6-11.9,0-17.8
	c21.6-6.4,42.3-15.1,62.8-24.3c10.7-4.8,8.2,1.8,7.4,7.6C883.8,494.3,889.5,501,883.4,505.2z"/>
<path class="st141" d="M721.6,536.4c-7.2,4.3-3.8,20.6-18.6,16.2c-0.4-6.8,3.6-12,6.9-17.3C714,528.8,718.2,530.3,721.6,536.4z"/>
<path class="st142" d="M892.4,518.1c-3.9-2.2-2-6.3-3.1-9.4c-3.4-5.5-3.4-11,0-16.6c0.6-4.2,1.6-8.1,6.8-8.6
	c1.2,2.2,2.4,4.4,3.5,6.5c-0.1,0.8-0.2,1.7-0.3,2.5c-2.7,6.3-0.8,12.6-0.2,19c0.2,0.9,0.3,1.8,0.4,2.7
	C899.6,519.9,896.5,519.9,892.4,518.1z"/>
<path class="st143" d="M816.4,506.2c0,5.9,0,11.9,0,17.8c-3.9,1-6.3-1.4-8.7-3.7c-0.2-1.9-0.5-3.8-0.7-5.6
	C808.2,509.7,803.5,498.2,816.4,506.2z"/>
<path class="st144" d="M883.4,505.2c0.9-5.3-2.1-11.4,3.2-15.7c0,1.1,0.1,2.2,0.1,3.3c2.2,5.1,2.2,10.3,0,15.4
	C882,511.3,884.2,506.5,883.4,505.2z"/>
<path class="st145" d="M886.7,508.1c0-5.1,0-10.3,0-15.4c0.9-0.2,1.8-0.4,2.6-0.6c0,5.5,0,11,0,16.5
	C888.5,508.5,887.6,508.3,886.7,508.1z"/>
<path class="st85" d="M611,552.7c0-1.1,0-2.1,0-3.2c-1.3-9.6,5.5-12.8,12.4-15.7c35.7-14.9,71.5-29.7,107.1-44.8
	c14.1-6,27.9-12.7,41.9-19.1c-1.5-10.9,4.6-11.5,12.7-9.4c18.4,0,34.8-7.5,51-15c4.8-2.3,8.3-3,12.7-0.7c2.6-0.6,3.5,0.6,3.4,3.1
	c-3.5,2.6-2.4,7.7-8.2,10C766.3,489.2,688.7,521,611,552.7z"/>
<path class="st146" d="M852.3,448c-1.1-1-2.3-2-3.4-3.1c-0.8-8,2.8-8.9,9-5.7c0.3,0.4,0.6,0.9,0.8,1.3c1.9,4.3,12,5.2,7.6,11.2
	C860.9,459.1,857.2,449,852.3,448z"/>
<path class="st147" d="M873.1,660.5c0,5.2,0,10.5,0.1,15.7C869.6,670.9,869.7,665.7,873.1,660.5z"/>
<path class="st2" d="M785.1,460.6c-5.6,1.3-11.5,2.2-12.7,9.4c-2.1-1.1-4.2-2.2-6.3-3.3c-3.1-0.9-4.4-3-4.4-6.1
	c0.4-2.8,1.3-5.4,2.7-7.9c1.3-1.8,3.1-2.9,5.2-3.3c11,0.2,18.1-5.2,21.8-15.3c2.9-6.8,2.6-13.4-0.5-20c-7.2-14.8-20-22.3-35.1-26.8
	c-5.4-1.6-11.7-0.8-15.6-6.2c-2.2-3.3,4.9-2.8,2.4-6.2c-0.4-1.3,0-2.1,1.2-2.6c10.3-1.5,19,4.1,28.6,6.1
	c7.4,5.3,14.9,10.6,22.3,15.9c1.4,7.1,9.4,10.9,9.6,18.7c4.2,7.7,4.1,15.4,0.1,23.1C801.6,447,790.6,451.6,785.1,460.6z"/>
<path class="st148" d="M806.6,413.6c4.6,1.7,3.8,5.7,3.9,9.2c-2.2,3.7,4.5,10-3.5,11.9C805,427.7,805.6,420.7,806.6,413.6z"/>
<path class="st149" d="M806.6,413.6c0.1,7.1,0.3,14.1,0.4,21.2c-0.9,0.4-1.7,0.8-2.5,1.3c0-7.7-0.1-15.4-0.1-23.1
	C805.1,413.3,805.9,413.5,806.6,413.6z"/>
<path class="st37" d="M892.4,518.1c2.9-0.3,5.6-0.9,7.1-3.8c5.4,10.3,10.8,20.7,3.2,32.3c0,0-0.6-0.5-0.6-0.5c-1.6-2.8-1.7-6-2.3-9
	c-0.4-1.7,2.6-6.5-3.1-3.4c-0.5-4.5-0.8-9.1-4.3-12.6C892.7,520,892.7,519.1,892.4,518.1z"/>
<path class="st150" d="M899.2,511.5c-4.3-6.4-10.6-12.8,0.2-19C904,499,904.1,505.3,899.2,511.5z"/>
<path class="st151" d="M858.1,581.2c4.5-3.2,9.7-3.4,14.9-3.9C869.4,583.6,864.9,586.8,858.1,581.2z"/>
<path class="st152" d="M915.3,486.4c4-0.2,8.1-0.4,12.1-0.6C923.6,491.6,919.5,490.1,915.3,486.4z"/>
<path class="st153" d="M839.5,369c1.3-3.9,2.5-7.9,4.1-11.8c1.1-2.8,2.1-6.6,6.3-5.6c3.7,0.9,4.3,4.1,4.1,7.5
	c-1.3,3.3-2.3,6.8-3.8,10C846.6,376.8,843,375.3,839.5,369z"/>
<path class="st154" d="M896.8,533.6c1.9-0.4,4.7-8.1,5.6,0.5c0.4,3.9-0.1,8-0.2,12c-1.8-2-3.6-4-5.4-6c-0.4-1.1-0.8-2.2-1.2-3.2
	C896,535.8,896.4,534.7,896.8,533.6z"/>
<path class="st12" d="M677.5,450.8c-2.9-2-5.8-4.1-8.7-6.1c-3.5-7.2-7-14.5-10.5-21.7c-1-1-1.4-2.2-1.4-3.5c1.2-5.1,1.2-10.3,0-15.4
	c0-1.4,0.5-2.5,1.5-3.5c12.1-20.7,31.7-27.1,54-28.3c0.4,3.1,2.5,4.3,5.3,4.8c1.2,0.8,1.8,2,1.7,3.4c-0.9,2.1-2.7,3.3-4.7,4
	c-9.7,1.7-19.5,3.4-28.4,7.8c-17.7,8.7-20.8,19.9-10.4,36.6c2.4,3.9,5.9,7.3,6.8,12.1C682.8,445.1,681.1,448.5,677.5,450.8z"/>
<path class="st155" d="M722.5,325.1c-11.1,5.9-22.4,11.3-35,13.1c-2.4-0.9-4-2.5-4.5-5c0.7-3.7,3.7-4.8,6.7-6
	c9.9-1.1,17.7-10.3,28.6-7.6C720.5,320.8,722,322.5,722.5,325.1z"/>
<path class="st156" d="M664.9,346.8c-10,5-20.6,8.3-31.6,10.2c-2.3-0.8-3.7-2.3-4.3-4.7c1.2-5.3,6.1-5.9,9.9-7.8
	c4.1-1.4,8.2-2.8,12.5-3.5c3.8-0.4,7.3,0.5,10.5,2.5C663.3,344.4,664.2,345.5,664.9,346.8z"/>
<path class="st157" d="M608.3,379.2c-2.4,5.2-3.1,12.3-9.7,14.4c-3.5,1.1-6.1-2.1-4.6-5.6c2.3-5.5,3.6-12.4,10.3-14.4
	C607.3,372.7,608.1,376.1,608.3,379.2z"/>
<path class="st158" d="M594.9,368.8c-7.9,4.2-16.6,5.2-25.3,6c-2.8-2.6-8,1-10-3.8c3.8-7.8,11.8-6.6,18.4-8.6
	c2.4-0.2,4.8-0.1,7.1,0.3C589,363.6,592.7,365.1,594.9,368.8z"/>
<path class="st159" d="M776,325c-0.6,3.1-1.3,5.8-3.8,5.2c-6.8-1.7-9.9-7.4-12-13.3c-1.1-3,1.3-5.8,4.1-5
	C771,313.9,772.2,321,776,325z"/>
<path class="st160" d="M715.7,378.3c-5.6,0.4-5-2.5-3.3-6.1c10.6-3,21.1-3.1,31.7,0c0,1,0,2.1,0,3.1
	C735.2,382,725.3,378.3,715.7,378.3z"/>
<path class="st161" d="M664.9,346.8c-1.3-0.2-2.5-0.4-3.8-0.6c2.4-14.3,12.1-14.3,23.1-12c1,1.3,2.1,2.6,3.1,4
	C680.2,341.6,673.1,345.8,664.9,346.8z"/>
<path class="st162" d="M750.9,312.7c-5.8,4.5-12.3,7.4-19.7,8.2c-3.2-1.1-4.5-3.3-3.7-6.6c1.1-2,2.6-3.5,4.6-4.5
	c6.2-2,12.4-5.9,18.2,0.8C750.5,311.3,750.7,312,750.9,312.7z"/>
<path class="st163" d="M772.6,302.5c-7.2,3.4-14.5,6.8-21.7,10.2c-0.3-0.6-0.6-1.1-1-1.6c-1.3-12.8,7.2-13.2,16.3-12.7l0,1.3
	C768.1,301,771.2,299.9,772.6,302.5z"/>
<path class="st164" d="M594.9,368.8c-2.9-1.1-5.8-2.2-8.6-3.3c3.4-10.1,11.1-8.6,18.8-6.7c2.5,3.3,2,6.5-0.4,9.6
	C601.4,368.6,598.1,368.7,594.9,368.8z"/>
<path class="st165" d="M604.6,368.4c0-2.8,0-5.6,0.1-8.4c0.2-2.6,1.5-4.3,3.7-5.5c3-1.2,6.1-1.2,9.2-0.3c2.9,1.1,5.7,2.6,7,5.7
	C617.9,362.8,611.2,365.6,604.6,368.4z"/>
<path class="st166" d="M538,381.5c-3.3-4.6-8.4-2.2-12.6-3.2c2.1-1.1,4.2-2.1,6.3-3.2c5.3-4.8,11.3-4.3,17.4-1.9
	c1.8,1,2.3,2.4,1.6,4.3C547.5,382.5,542.6,381.6,538,381.5z"/>
<path class="st167" d="M624.5,360c-2.4-1-4.7-2-7.1-3c2.6-6.7,6.9-7.6,12.6-3.8c1.1,1.3,2.3,2.6,3.4,3.9
	C631,359.9,627.7,359.8,624.5,360z"/>
<path class="st168" d="M550.7,377.6c0.3-0.9,0.4-1.7,0.2-2.6c1.4-6.7,5.3-5.4,9.6-3c3.2,0.3,6.8-0.5,9.1,2.8
	C563.3,375.5,557.6,380.6,550.7,377.6z"/>
<path class="st169" d="M728.1,315.9c1,1.6,2.1,3.3,3.1,4.9c-2.9,1.4-5.8,2.8-8.7,4.2c-1.3-1.4-2.7-2.8-4-4.2
	C719.6,315.1,722.5,313,728.1,315.9z"/>
<path class="st170" d="M658.4,400.5c0.2,1.2,0.4,2.4,0.6,3.6c1.6,5.1,1.5,10.1,0.1,15.2c-0.2,1.2-0.5,2.5-0.7,3.7
	c-0.7-0.1-1.4-0.2-2.1-0.3c-4.1-7.2-3.3-14.6-0.5-22C656.7,400.7,657.5,400.6,658.4,400.5z"/>
<path class="st171" d="M655.8,400.7c0.2,7.3,0.3,14.7,0.5,22c-6.8-3.8-3.1-10.4-4.2-15.7C652.3,404.3,652.9,401.8,655.8,400.7z"/>
<path class="st172" d="M772.6,302.5c-2.1-0.9-4.3-1.9-6.4-2.8c2.9-1.3,5.9-2.7,8.8-4c1.3,1.1,2.6,2.2,3.9,3.3
	C776.8,300.2,774.7,301.3,772.6,302.5z"/>
<path class="st173" d="M642.7,486.2c-0.1-1.3-0.2-2.6-0.3-3.9c-3.4-3.1-7.4-5.9-7.2-11.4c18.4,3.1,32.1-6.7,45.6-16.7
	c11.4-2.5,19.4,0.9,22.4,12.9c-16.6,6.2-31.9,15.5-49.2,20.1C649.9,488.2,646.1,490.8,642.7,486.2z"/>
<path class="st12" d="M703.2,467c-6.1-6.7-14.3-9.6-22.4-12.9c-1.1-1.1-2.2-2.2-3.3-3.4c1.1-3.1,2.2-6.2,3.3-9.4
	c2-4.2,5.2-5.4,9.6-4.1c2.9,1.6,4.4,4.3,5.7,7c13.2,15.3,30.8,16,49,15.2c6-0.3,12.4-4.1,18,1.4c1,1.9,2.1,3.7,3.1,5.6
	c-5,3-8.6,10-16.1,5.6c-6.5-1.3-13.3,0.8-19.8-1.6C720.7,472.9,712.4,466.5,703.2,467z"/>
<path class="st174" d="M730.2,470.7c6.6,0.1,13.5-2.2,19.8,1.6C743.4,472.4,736.6,474,730.2,470.7z"/>
<path class="st175" d="M635.2,470.9c2.4,3.8,7.3,6,7.2,11.4c-3.6,1.8-6.9,0.1-10.4-0.5c-6.4-1-10.7-6.8-9.7-10.1
	C624.6,464,630.6,470.2,635.2,470.9z"/>
<path class="st126" d="M721.9,235.9c22.2-7.7,45.2-11.7,68.7-12.6c3.3-0.1,8.5-1.5,8.7,3.8c0.2,4.4-4.2,5.5-8,5.5
	c-20.5-0.2-39.9,6.5-59.9,9.6C725,245,721.7,243,721.9,235.9z"/>
<path class="st176" d="M811,245.5c-4.8,3.6-11.6,5.1-13.1,12.2c-8.9-1.8-12.2,7.3-19.1,9.5c-2.6-2.5-4.9-5.1-3.9-9.2
	c1.5-2.4,3.8-3.9,6-5.5c2.4-1.9,5.1-3.4,6.8-6c0.4-2.6-2.6-3-3.2-4.9c7.3-4.1,15.4-1.9,23.1-2.4C812.8,239,811.9,242.3,811,245.5z"
	/>
<path class="st177" d="M721.9,235.9c1.8,4.2,4.9,6.3,9.5,6.3c-10.1,7.3-22.6,5.1-33.7,8.2c-3.3,0.9-3.8-2.5-4.3-5
	c6.1-2.7,11.7-7.1,19-6.3C715.5,238,718.7,237,721.9,235.9z"/>
<path class="st178" d="M744.1,248.6c11.2-4.3,22.8-6.7,34.8-6.3c2.7,3.4,8.4-0.6,10.4,4.4c-6.2,8.5-16.3,4.6-24.2,7.5
	c-4.4,1.1-8.8,2.5-13.5,2.1C747.9,254.9,745.5,252.2,744.1,248.6z"/>
<path class="st179" d="M680.9,264.5c2.9-4.9,9.6-1.3,12.7-5.7c3.2-0.1,6.4-0.1,9.6-0.2c3.4,1.2,8.6,1,5.5,7.2
	c-5.4,3.9-11.6,5.3-18.2,5.2C686.2,270.5,682.4,269.1,680.9,264.5z"/>
<path class="st180" d="M709.3,263.4c-2-1.6-4.1-3.2-6.1-4.8c4.5-4,10.1-3.4,15.6-3.7c3.4-1.1,4.1,1.1,4.5,3.7
	C720.2,264.9,715.7,267,709.3,263.4z"/>
<path class="st181" d="M721.9,258.2c-1.1-1.1-2.1-2.2-3.2-3.2c3.5-4.2,8.4-2.3,12.7-3.1c4.3-2.4,6.8-1.7,6.9,3.7
	C733.7,261.7,728.3,263,721.9,258.2z"/>
<path class="st182" d="M737.7,254.3c-2.1-0.8-4.2-1.7-6.3-2.5c3.5-4.1,8.4-2.4,12.7-3.2c3.8,0.1,6.1,1.8,6.3,5.8
	C746.1,258.6,741.9,258.7,737.7,254.3z"/>
<path class="st183" d="M789.3,245.9c-3.6-0.7-7.8,0.2-10.4-3.6c1.9-0.2,3.7-0.3,5.6-0.5c1.7,1.9,7.9-2.8,6.2,4.1L789.3,245.9z"/>
<path class="st184" d="M766.2,298.4c-6.3,3.2-14.9,3.3-16.3,12.7c-6.3-4.7-12,3.2-18.2,1c-10.9,4-13.1-0.8-10.2-10.3
	c1.1-3.4,3.3-6.3,5.1-9.4c1.9-4.5,5-7.9,9.2-10.3c2.5-1.5,5.2-2.6,8-3.7c6.8-1.7,12.6-5.8,19-8.5c1.5-0.1,2.6,0.6,3.4,1.9
	c7.9,4,0.5,7-0.8,10.2C763.2,287.6,756.7,293.3,766.2,298.4z"/>
<path class="st185" d="M766.2,271.6l-1.3-0.7l-1.5,0.1c-3.2,1.2-3.9-0.7-4.3-3.2c4-5.8,8.2-11.3,16.6-9c1,2.9,2.1,5.7,3.1,8.6
	C774.3,267.9,769.6,267.9,766.2,271.6z"/>
<path class="st186" d="M579.3,292.9c7.6-0.3,14.3-7.3,22.5-3.1c1.5,1.9,1.3,3.8,0.1,5.8c-5.3,2.6-11.6,3.2-16,7.8
	c-5.8,1.7-11.9,1.9-17.6,4c-2.5,0.9-4.9,1.9-7.4,2.7c-1.3,0.3-2.6,0.3-3.9,0.1c-2.7-0.7-4.5-2.5-6.2-4.5
	C559.1,298.7,570.4,298.5,579.3,292.9z"/>
<path class="st187" d="M503.3,331c2-4.3,5.2-7.4,9.5-9.5c9.2-1.2,15.1-11.3,25.4-9.5c1.5,1.4,3.8,2,4,4.5c-1,3.9-4.3,5.5-7.5,7.2
	c-6,2.1-11.3,5.5-16.6,8.9c-2.4,1.5-4.9,2.8-7.9,2.8C507.1,335.1,505.1,333.2,503.3,331z"/>
<path class="st188" d="M541.5,315.2c-1.1-1.1-2.2-2.2-3.3-3.3c5-0.5,9.4-2.3,12.6-6.3c2.5,0,4.8,0.3,6.2,2.7
	C554,315.5,549.3,318.9,541.5,315.2z"/>
<path class="st189" d="M503.3,331c2.1,0.9,4.2,1.8,6.2,2.6c0,2.2-1.1,3.9-2.7,5.3c-3.4,2.3-6.6,4.9-10.4,6.4
	c-2.1,0.4-4.1,0.1-5.7-1.5c0,0,0-0.2,0-0.2C492.7,337.2,499.6,335.6,503.3,331z"/>
<path class="st190" d="M560.5,372c-3.2,1-7.4-1.2-9.6,3c-6.4,0.1-12.8,0.1-19.2,0.2c-14.8-7.9-29.5,4.1-44.3,0.1
	c-1-5.3,3.5-10.6,0-15.8c3.4-0.2,7,0.4,9.7-2.6c2.1-3,5.1-3.2,8.3-2.9c4.6,1.3,8.4,5.3,13.5,4c2.4,0.3,0.5-3.6,0.3-1.5
	c-0.1,0.8-0.4,1.1-0.9,1.1c-2.9,0.1-6.2,1-5.9-3.8c5.8-6.7,13.7-4.2,20.9-4.9c9,0.3,17.5-2.2,26.1-4.6c5.3-1.2,10.6-2.8,16.1-1.6
	c4.6,7.1-1.8,15.9,3.7,22.9C573,367.7,566.7,369.8,560.5,372z"/>
<path class="st191" d="M506.7,356.9c-3.2,0-6.4-0.1-9.6-0.1c-4.5-0.4-9-0.7-13.7-1.1c-0.3-5.7,7.9-6.2,7.3-11.9
	c2-0.1,4.1-0.2,6.1-0.3c2.8,0,5.6-0.3,8.4,0.1c8.6,0.7,17.4-2.2,25.9,1.2c2.8,1.7,4.6,4,3.8,7.6c-7.2,1.8-15.2-0.5-21.9,4
	C511.1,358.1,508.9,357.9,506.7,356.9z"/>
<path class="st192" d="M623.8,281.1c-0.1-1.3-0.1-2.7-0.2-4c11.9-0.6,21.3-14.6,34.8-6.4c-3.4,5.7-9.9,6.2-15.1,8.9
	c-3.5,1.5-7,3-10.8,3.7C629.5,283.6,626.4,283.4,623.8,281.1z"/>
<path class="st193" d="M642.8,277.1c5.2-2.1,10.4-4.3,15.7-6.4c2-0.1,4-0.2,5.9-0.4c5.6-0.8,5.1,2.8,4.6,6.4
	c-6.1,5.8-13.5,6.6-21.4,5.8C645.1,281.6,643.4,279.8,642.8,277.1z"/>
<path class="st194" d="M667.9,276.5c-0.1-2.7-1.1-4.8-3.5-6.2c4.7-4.2,10.2-5.9,16.4-5.8c3.1,1,6.1,2,9.2,3
	C685.7,277.9,677.1,277.9,667.9,276.5z"/>
<path class="st137" d="M617.3,267.6c4.1-5,9.6-6.5,15.8-6.3C629.1,266.3,623.5,267.8,617.3,267.6z"/>
<path class="st195" d="M601.9,296.7c0-2.3,0-4.5-0.1-6.8c4.1-1.1,8.2-2.2,12.3-3.2c3.8-1.5,5.7,0.6,7.2,3.7
	c-3.4,8.2-10.2,8.5-17.5,7.7C603.2,297.5,602.6,297.1,601.9,296.7z"/>
<path class="st196" d="M620.7,289.9c-2.2-1.1-4.4-2.2-6.6-3.3c3.2-1.9,6.4-3.7,9.7-5.6c3.1-0.2,6.3-0.4,9.4-0.7c2,0.9,3.9,2,4.3,4.5
	c-0.3,1.5-1,2.7-2.2,3.6C630.6,290.6,626,293.7,620.7,289.9z"/>
<path class="st197" d="M715.6,381.7c1.2-1,2.4-2,3.5-3c7.1-2.7,14.2-2.8,21.2,0.1c13.9,4.4,29,6.2,40.4,16.3
	c5.7,5.1,13.1,9.3,13.5,18.4c0.1,7.2,0.4,14.5-0.2,21.7c-3.9,11.5-9.3,20.7-24.1,15.7c-9.2-0.6-17.4-5-26.3-6.7
	c-4.6-1.5-9-3.4-12.5-6.9c-8.4-7-16.8-14-20.3-25C707.3,401.3,707.3,390.9,715.6,381.7z"/>
<path class="st198" d="M765.7,455.8c-7.4-3.2-14.7-6.5-22.1-9.7c-1.1-1.7-1-3.3,0.6-4.8c10.2-1,17.9,4.5,25.9,9.6
	C768.6,452.5,767.2,454.2,765.7,455.8z"/>
<path class="st199" d="M794.1,435.2c-3.9-7.3-4.1-14.5,0.2-21.7C799.1,420.8,799.2,428,794.1,435.2z"/>
<path class="st200" d="M740.3,378.8c-7.1,0-14.1,0-21.2-0.1c-1.1-0.1-2.3-0.2-3.4-0.4c8.9-6.1,19-1.6,28.4-3
	c1.2,0.7,2.3,1.4,3.5,2.1C745.1,377.8,742.7,378.3,740.3,378.8z"/>
<path class="st201" d="M715.6,381.7c-8.2,23,0.7,40.1,18.7,54c-2.5,2.5-5.5,2.7-8.7,2.3c-6.6-1.9-13.2-2.1-19.8,0.1
	c-5.2-0.7-10.2,4.2-15.5,0.5c-3.1,0.9-6.3,1.8-9.4,2.8c-28.1-30.4-16-48.2,19.4-58.3C705,381.8,710.4,382.1,715.6,381.7z"/>
<path class="st202" d="M659.1,419.3c0-5.1-0.1-10.1-0.1-15.2C663,409.2,663,414.2,659.1,419.3z"/>
<path class="st203" d="M731.3,292.6c-2.1,3.4-4.3,6.7-6.3,10.1c-4.8,8.2,0.2,9.3,6.8,9.3c-1.2,1.3-2.4,2.6-3.6,3.8
	c-3.2,1.7-6.4,3.3-9.6,5c-9.5,3.3-18.9,6.5-28.4,9.8c-11.4-1-15-7.4-12.4-18c3-8.6,11.3-9.8,18.1-13.2
	C707.6,296.8,717.9,286.8,731.3,292.6z"/>
<path class="st204" d="M680.5,311.2c-0.3,8.2-0.6,16.4,9.6,19.5c-1.9,1.2-3.9,2.4-5.8,3.6c-8.6,2.3-17.9,3.1-23.1,12
	c-3-1-6-2.1-9-3.1c-5.3-5.3-4.2-11.9-3.7-18.4C655.8,312.2,664.8,308.4,680.5,311.2z"/>
<path class="st205" d="M630,353.2c-4.6-0.1-8.8,1.2-12.6,3.8c-3,0.1-6,0.2-9,0.3c-10.2-6.5-7.7-13.7-1-21c5.3-5,11.9-8.1,18.3-11.3
	c2.8-1.6,5.8-3,9-3.6c5-0.7,9.9-0.8,14.3,2.4c0.1,9.2-6,16-9.2,24C636.6,349.5,633.3,351.3,630,353.2z"/>
<path class="st206" d="M639.8,347.7c-1.9-9.7,0.4-17.7,9.2-23.2c0.8-1,1.8-1.1,2.9-0.6c0.1,6.4,0.2,12.8,0.3,19.2
	C648.4,345.6,644.6,347.9,639.8,347.7z"/>
<path class="st207" d="M611.3,336.3c-7,6.1-8.5,13-3,20.9c-1.2,0.9-2.5,1.9-3.7,2.8c-6.6,0.3-12.6,2.7-18.4,5.5c-2.3,0-4.7,0-7,0
	c-15.1-5.1-5.5-13.7-3.1-21.3c6.8-9.7,18.4-8.1,27.7-12C607.2,332,610.4,332.1,611.3,336.3z"/>
<path class="st208" d="M690.2,438.7c5.2-1.1,10.4-2.2,15.6-3.3c6.5-2.3,12.9-2.2,19.4,0c3,0.1,6,0.2,9,0.4c2.1,4,8.2,1,10,5.6
	c-0.2,1.6-0.4,3.2-0.6,4.8c-6.2-1.6-12.5-3.2-18.7-4.7c-6.3-1.9-12.6-1.9-18.9,0c-4.3,1.1-8.5,2.2-12.8,3.3
	C692.3,442.7,691.2,440.7,690.2,438.7z"/>
<path class="st209" d="M731.3,292.6c-11.5,3.4-23.1,6.8-34.6,10.1c-2.2-0.5-3.6-1.9-4.2-4.1c0.2-2.3,1.5-3.7,3.3-4.9
	c2.4-1.3,4.9-2.2,7.3-3.4c4.1-1.5,4.4-7.1,8.7-8.4c8.7,1.7,18-5.7,26.4,1.6C736.7,287.2,730.6,287.4,731.3,292.6z"/>
<path class="st210" d="M738.1,283.6c-9.7,1-19.9-3-29.2,2.8c-2.1,3.6-6.5,3.4-9.4,5.5c-5.1,1.2-10.3,2.1-15.5,2.6
	c-1.6-0.1-3-0.7-4.2-1.7c-1.2-2.2-1.2-4.5-0.3-6.8c2-2.8,4.8-3.9,8.1-4.2c6.1-0.7,12.4,1.3,18.4-1.3c4.9-0.3,9.7-0.6,14.6-0.8
	c7.1-2,14.3-0.9,21.5-0.9c0.7,0.5,1.5,1.1,2.2,1.6C743.3,283.8,740.6,283.5,738.1,283.6z"/>
<path class="st211" d="M743.6,276.1c5.5-2.7,10.9-5.3,16.4-8c1.1,1,2.2,1.9,3.3,2.9c-4.8,6.2-10.9,10.1-19,9.6c0,0-0.5-0.4-0.5-0.4
	C742.3,278.9,742.3,277.5,743.6,276.1z"/>
<path class="st212" d="M541.5,315.2c6-0.3,10.4-4.5,15.6-6.9c1.1,0.1,2.1,0.2,3.2,0.4c3.1,0.4,6.2,0.8,7.1,4.6
	c-7.2,9.2-16.7,13.2-28.2,13.1c-2.4-0.9-3.9-2.6-4.5-5.1C537,319.3,539.2,317.3,541.5,315.2z"/>
<path class="st213" d="M567.3,305.8c5.8-3.8,11.7-7,18.9-3.6c1.6-0.5,2.7-0.1,3.3,1.5c-3.1,6.5-9,6.9-15.1,7
	C571.3,310.1,568.8,308.6,567.3,305.8z"/>
<path class="st214" d="M589,302.6c-0.9-0.1-1.9-0.2-2.8-0.3c2.4-10,8.2-10,15.7-5.6c0,0,0.3,0.2,0.3,0.2
	C599.8,303.4,595.7,305.9,589,302.6z"/>
<path class="st215" d="M567.3,305.8c1.9,0.8,3.7,1.7,5.6,2.5c-1,3.2-2.7,5.3-6.4,3.6c-2.5-0.3-4.9-0.7-6.2-3.2
	C561.6,305.2,565,306.8,567.3,305.8z"/>
<path class="st216" d="M534.7,321.3c1.1,1.1,2.3,2.2,3.4,3.3c-1.8,9.9-9.6,10.6-17.4,11.3c-2.5-0.8-4-2.4-4.5-4.9
	C521.8,326.6,526.3,320.2,534.7,321.3z"/>
<path class="st217" d="M516.3,331.1c1,1.1,2,2.2,3,3.3c0.9,6.2-2.9,7.7-8,7.9c-2.4-0.7-3.8-2.2-4.3-4.6c0.9-1.3,1.8-2.6,2.6-4
	C511.8,332.8,514,331.9,516.3,331.1z"/>
<path class="st218" d="M506.9,337.6c0.9,1.1,1.9,2.1,2.8,3.2c1.4,5.7-4.3,3.9-6.3,6c-2.6-0.2-5.2-0.5-6.5-3.2
	C499.2,339.8,501.9,336.8,506.9,337.6z"/>
<path class="st219" d="M604.8,334.4c-8.6,5.9-19.2,6.2-28.6,9.8c-5.2,1-10.4,2-15.7,2.9c-4.1-0.8-7.9-2-7.3-7.4
	c20.2-21.8,45.3-35,73.7-42.6c3.4,1.1,5,3.5,4.8,7c-3,8.5-12,9.3-17.9,14.1c-3.8,3.1-11.7,2.8-10.1,10.9
	C604.9,330.7,606.1,332.3,604.8,334.4z"/>
<path class="st219" d="M553.9,341.1c2.2,2,4.4,4,6.5,6.1c-8.3,2.6-16.3,7.1-25.5,5.3c-1-1.7-2-3.3-3-5
	C537.3,338.5,544.5,336.1,553.9,341.1z"/>
<path class="st220" d="M506.7,356.9c2.1-0.2,4.2-0.4,6.4-0.6c2.9,0,5.9,0,8.8,0C516.7,359.7,511.6,360.8,506.7,356.9z"/>
<path class="st221" d="M645.8,280.2c-2,4.1-6.1,2.7-9.4,3.3c-1.1-1-2.1-2.1-3.2-3.1c3.2-1.1,6.4-2.2,9.6-3.3
	C643.8,278.2,644.8,279.2,645.8,280.2z"/>
<path class="st222" d="M706.1,441.4c6.3-4.3,12.6-4.3,18.9,0C718.7,441.4,712.4,441.4,706.1,441.4z"/>
<path class="st222" d="M725.3,435.4c-6.5,0-12.9,0-19.4,0C712.3,430.9,718.8,431,725.3,435.4z"/>
<path class="st223" d="M693.1,299.2c1.2,1.2,2.4,2.4,3.5,3.6c-5.4,2.8-10.8,5.6-16.2,8.4c-9.5,4.2-21.6,2.8-28.6,12.8
	c-1,0.2-1.9,0.4-2.9,0.6c-5.4-0.1-10.7-0.3-16.1-0.4c-2.7-0.9-4.2-2.5-3.2-5.5c16.3-10.8,35.4-14.8,53.3-21.8
	C686.5,295.3,690.3,296.2,693.1,299.2z"/>
<path class="st224" d="M604.8,334.4c-1.2-1.2-2.5-2.4-3.7-3.6c1.1-9.7,8-9.4,15.1-8.9c4.1,1.1,8.1,2.3,10.8,5.9
	c-5.2,2.8-10.5,5.7-15.7,8.5C609.7,333.8,607.2,334.2,604.8,334.4z"/>
<path class="st225" d="M627,327.8c-3.4-0.3-7.1,0.7-9.6-2.7c2.1-6.1,6.1-7.2,11.6-4.3c1.3,1.1,2.6,2.1,4,3.2
	C631,325.3,629,326.6,627,327.8z"/>
<path class="st226" d="M626.1,298.9c6.8-3,13.5-5.9,20.3-8.9c2.9-0.1,5.7-0.3,8.6-0.4c5.8-1.1,7.6,1.7,6.9,7
	c-9.9,5.5-19.2,13.5-32,8.9C629.9,302.7,629,300.2,626.1,298.9z"/>
<path class="st227" d="M661.8,295.7c-2.2-2-4.5-4-6.7-6c4.3-6,11-1.4,16.1-3.5c3.4-2,6.6-2.4,9.5,0.9c0,1.8,0,3.5,0,5.3
	C675.5,299.6,669.3,301.6,661.8,295.7z"/>
<path class="st209" d="M680.7,287c-3.2-0.3-6.3-0.6-9.5-0.9c3.2-9.9,11-4.7,17.1-5.2c0,1.2-0.5,2-1.7,2.4
	C684.6,284.5,682.7,285.8,680.7,287z"/>
<path class="st228" d="M743.6,276.1c0.1,1.4,0.1,2.8,0.2,4.1c-7.7-0.1-15.5-0.2-23.2-0.4C728.3,278.6,736,277.3,743.6,276.1z"/>
<path class="st209" d="M686.6,283.3c0.6-0.8,1.2-1.5,1.7-2.4c5.9-0.1,11.8-0.2,17.8-0.3C700.1,285.7,693.2,283.2,686.6,283.3z"/>
<path class="st229" d="M661.8,295.7c6.9,2.3,12.6-2.2,18.9-3.4c1,0.5,2,0.6,3,0.6c4.6-1.2,9.6-4.7,12.5,2.5c-1,1.3-2.1,2.5-3.1,3.8
	c-22.5,3.9-42.7,14.5-64.1,21.7c-4.6-0.6-8.1,2-11.6,4.3c-6.1,0-12.3-0.6-16.3,5.6c-3.5,0.7-6.6-0.4-7.6-3.8c-1-3.5,3.2-3.5,5-4.6
	c10.4-5.9,21-11.2,31.5-16.8C640.6,302.3,651.2,299,661.8,295.7z"/>
<path class="st230" d="M696.2,295.4c-3.6-3.7-8.3-1.7-12.5-2.5c4.7-4,10.8-1.7,16-3.6c3-0.5,4.2,1,4.2,3.8
	C701.9,295.5,699.2,296,696.2,295.4z"/>
<path class="st228" d="M703.9,293c-1.4-1.3-2.8-2.5-4.2-3.8c2.4-3.2,6-2.6,9.3-2.9C714.4,294,707.7,292.4,703.9,293z"/>
</svg>
